<svg width="40" height="40" viewBox="0 0 40 40" fill="none" xmlns="http://www.w3.org/2000/svg">
<circle cx="20" cy="20" r="20" fill="white"/>
<g clip-path="url(#clip0)">
<path d="M23.5834 21C23.3533 21 23.1667 20.8134 23.1667 20.5833C23.1667 20.3532 23.3533 20.1666 23.5834 20.1666C25.8835 20.1639 27.7474 18.3 27.7501 16V12.6667H24.0001C23.77 12.6667 23.5834 12.4801 23.5834 12.25C23.5834 12.0199 23.77 11.8333 24.0001 11.8333H28.1668C28.3969 11.8333 28.5835 12.0199 28.5835 12.25V16C28.5802 18.7601 26.3435 20.9968 23.5834 21Z" fill="#FFA000"/>
<path d="M14.4167 21C11.6567 20.9968 9.41995 18.7601 9.41675 16V12.25C9.41675 12.0199 9.60331 11.8333 9.83343 11.8333H14.0001C14.2302 11.8333 14.4167 12.0199 14.4167 12.25C14.4167 12.4801 14.2302 12.6667 14.0001 12.6667H10.2501V16C10.2528 18.3 12.1167 20.1639 14.4167 20.1667C14.6469 20.1667 14.8334 20.3532 14.8334 20.5834C14.8334 20.8134 14.6469 21 14.4167 21Z" fill="#FFA000"/>
<path d="M21.6059 27.6067L21.3817 27.3767C20.5084 26.4783 20.2684 23.9667 20.25 23.075C20.2455 22.8481 20.0603 22.6666 19.8334 22.6667H18.1667C17.9401 22.6666 17.755 22.8477 17.75 23.0742C17.7325 23.9659 17.4925 26.4759 16.6183 27.3759L16.3941 27.6059C15.2499 28.7834 14.4166 29.6342 14.4166 30.5834C14.4166 30.8135 14.6032 31 14.8333 31H23.1666C23.3968 31 23.5833 30.8135 23.5833 30.5834C23.5834 29.6342 22.75 28.7833 21.6059 27.6067Z" fill="#FFA000"/>
<path d="M23.9999 11H13.9999C13.7698 11 13.5833 11.1866 13.5833 11.4167V18.0834C13.6223 21.0586 16.0247 23.4609 18.9999 23.5C21.9752 23.4609 24.3775 21.0586 24.4166 18.0833V11.4167C24.4166 11.1866 24.23 11 23.9999 11Z" fill="#FFC107"/>
<path d="M19.873 14.69H17.613V16.64C17.993 16.3333 18.4463 16.18 18.973 16.18C19.433 16.18 19.7763 16.3167 20.003 16.59C20.2363 16.8567 20.353 17.2867 20.353 17.88V18.24C20.353 19.4933 19.703 20.12 18.403 20.12C18.1696 20.12 17.913 20.0967 17.633 20.05C17.353 20.01 17.1063 19.96 16.893 19.9V19.21C17.0863 19.25 17.343 19.2933 17.663 19.34C17.983 19.38 18.223 19.4 18.383 19.4C18.7496 19.4 19.0263 19.3033 19.213 19.11C19.4063 18.91 19.503 18.62 19.503 18.24V17.85C19.503 17.21 19.2563 16.89 18.763 16.89C18.4963 16.89 18.2596 16.94 18.053 17.04C17.853 17.14 17.6496 17.3067 17.443 17.54H16.793V13.96H19.873V14.69Z" fill="white"/>
</g>
<defs>
<clipPath id="clip0">
<rect width="20" height="20" fill="white" transform="translate(9 11)"/>
</clipPath>
</defs>
</svg>
