<svg width="40" height="40" viewBox="0 0 40 40" fill="none" xmlns="http://www.w3.org/2000/svg">
<circle cx="20" cy="20" r="20" fill="white"/>
<g clip-path="url(#clip0)">
<path d="M23.5512 30.8908H16.4485C16.1216 30.8908 15.8566 30.6258 15.8566 30.2989V29.5886C15.8566 29.2617 16.1216 28.9967 16.4485 28.9967H23.5512C23.8781 28.9967 24.1431 29.2617 24.1431 29.5886V30.2989C24.1431 30.6258 23.8781 30.8908 23.5512 30.8908Z" fill="#4073C8"/>
<path d="M23.5512 28.9968H21.9531C22.28 28.9968 22.545 29.2618 22.545 29.5887V30.299C22.545 30.6258 22.28 30.8909 21.9531 30.8909H23.5512C23.8781 30.8909 24.1431 30.6258 24.1431 30.299V29.5887C24.1431 29.2617 23.8781 28.9968 23.5512 28.9968Z" fill="#30579D"/>
<path d="M16.7445 30.8908L17.1759 33.5653C17.2684 34.1389 17.7635 34.5605 18.3445 34.5605H21.6553C22.2363 34.5605 22.7315 34.1388 22.8239 33.5653L23.2553 30.8908H16.7445Z" fill="#9DC6FB"/>
<path d="M21.6573 30.8908L21.2259 33.5653C21.1334 34.1389 20.6383 34.5605 20.0573 34.5605H21.6553C22.2364 34.5605 22.7315 34.1388 22.824 33.5653L23.2554 30.8908H21.6573Z" fill="#80B4FB"/>
<path d="M28.8783 17.3957C28.8783 12.4923 24.9033 8.51739 20 8.51733C15.106 8.51728 11.1433 12.4616 11.1215 17.3554C11.1055 20.9745 13.2551 24.0929 16.3489 25.4904C16.771 25.681 17.0404 26.1034 17.0404 26.5666V28.9968H22.9593V26.5666C22.9593 26.0984 23.237 25.678 23.6635 25.4846C26.739 24.0895 28.8783 20.9926 28.8783 17.3957Z" fill="#F6E266"/>
<path d="M25.8077 10.6802C26.3734 11.9447 26.6883 13.346 26.6883 14.8209C26.6883 20.4271 22.1436 24.9718 16.5373 24.9718C16.097 24.9718 15.6633 24.9437 15.2378 24.8893C15.5919 25.1148 15.9631 25.316 16.349 25.4903C16.7711 25.6809 17.0405 26.1033 17.0405 26.5665V28.9967H22.9594V26.5666C22.9594 26.0984 23.2371 25.6779 23.6636 25.4845C26.7391 24.0895 28.8783 20.9926 28.8783 17.3956C28.8783 14.7129 27.6884 12.3081 25.8077 10.6802Z" fill="#F1D333"/>
<path d="M20 17.3957C21.6344 17.3957 22.9594 16.0707 22.9594 14.4363C22.9594 12.8018 21.6344 11.4768 20 11.4768C18.3655 11.4768 17.0405 12.8018 17.0405 14.4363C17.0405 16.0707 18.3655 17.3957 20 17.3957Z" fill="#F1D0A5"/>
<path d="M21.472 11.8693C21.7212 12.3029 21.8644 12.8052 21.8644 13.3413C21.8644 14.9757 20.5394 16.3007 18.905 16.3007C18.3689 16.3007 17.8666 16.1574 17.433 15.9082C17.9436 16.7968 18.9016 17.3957 20 17.3957C21.6344 17.3957 22.9594 16.0707 22.9594 14.4363C22.9594 13.3379 22.3605 12.3799 21.472 11.8693Z" fill="#F1B986"/>
<path d="M15.0281 19.7632V22.3675H24.9718V19.7632C24.9718 18.4556 23.9118 17.3956 22.6042 17.3956H17.3956C16.0881 17.3957 15.0281 18.4556 15.0281 19.7632Z" fill="#DD5790"/>
<path d="M22.6043 17.3957H21.1837C22.4913 17.3957 23.5513 18.4557 23.5513 19.7633V22.3676H24.9718V19.7633C24.9719 18.4557 23.9118 17.3957 22.6043 17.3957Z" fill="#DA387D"/>
<path d="M23.8453 25.8845C27.1695 24.3763 29.3175 21.0442 29.3175 17.3955C29.3175 15.4256 28.7101 13.5427 27.5609 11.9504C27.4189 11.7537 27.1443 11.7092 26.9474 11.8513C26.7506 11.9933 26.7062 12.268 26.8482 12.4648C27.8886 13.9064 28.4386 15.6115 28.4386 17.3955C28.4386 20.7002 26.4931 23.7182 23.4824 25.0841C22.8978 25.3491 22.52 25.9311 22.52 26.5666V28.5571H17.4798V26.5666C17.4798 25.9308 17.107 25.3511 16.5298 25.0898C13.4964 23.7196 11.5461 20.6845 11.5613 17.3576C11.5818 12.7254 15.3673 8.95679 19.9999 8.95679C22.0358 8.95679 24.0018 9.69173 25.5357 11.0262C25.7188 11.1855 25.9964 11.1663 26.1557 10.9831C26.315 10.8 26.2957 10.5225 26.1126 10.3632C24.4187 8.88946 22.2478 8.07788 19.9999 8.07788C17.516 8.07788 15.1805 9.04093 13.4238 10.7897C11.667 12.5385 10.6934 14.8697 10.6823 17.3536C10.6657 21.0269 12.819 24.3779 16.1677 25.8906C16.4309 26.0097 16.601 26.2751 16.601 26.5666V28.557H16.4486C15.88 28.557 15.4174 29.0199 15.4174 29.5888V30.299C15.4174 30.8409 15.8379 31.2857 16.3696 31.3263L16.7419 33.635C16.8695 34.4259 17.5436 35 18.3447 35H18.9745C19.2172 35 19.414 34.8032 19.414 34.5605C19.414 34.3178 19.2172 34.1211 18.9745 34.1211H18.3447C17.9772 34.1211 17.6681 33.8577 17.6095 33.4951L17.2604 31.3302H17.9491C18.1918 31.3302 18.3886 31.1335 18.3886 30.8908C18.3886 30.6481 18.1918 30.4513 17.9491 30.4513H16.4486C16.3645 30.4513 16.2962 30.383 16.2962 30.299V29.5888C16.2962 29.5045 16.3646 29.4359 16.4486 29.4359H23.5513C23.6353 29.4359 23.7036 29.5045 23.7036 29.5888V30.299C23.7036 30.383 23.6353 30.4513 23.5513 30.4513H19.9999C19.7572 30.4513 19.5605 30.6481 19.5605 30.8908C19.5605 31.1335 19.7572 31.3302 19.9999 31.3302H22.7394L22.3903 33.495C22.3318 33.8577 22.0226 34.1211 21.6552 34.1211H21.0253C20.7826 34.1211 20.5859 34.3178 20.5859 34.5605C20.5859 34.8032 20.7826 35 21.0253 35H21.6552C22.4563 35 23.1304 34.4259 23.258 33.635L23.6303 31.3263C24.162 31.2857 24.5825 30.841 24.5825 30.299V29.5888C24.5825 29.0199 24.1199 28.557 23.5513 28.557H23.399V26.5666C23.399 26.2752 23.5741 26.0075 23.8453 25.8845Z" fill="black"/>
<path d="M14.5886 19.7632V22.3675C14.5886 22.6102 14.7854 22.807 15.0281 22.807H24.9718C25.2145 22.807 25.4113 22.6102 25.4113 22.3675V19.7632C25.4113 18.2154 24.1521 16.9561 22.6043 16.9561H22.2782C22.966 16.3338 23.3989 15.4346 23.3989 14.4361C23.3989 12.562 21.8742 11.0372 20 11.0372C18.1258 11.0372 16.6011 12.562 16.6011 14.4361C16.6011 15.4346 17.034 16.3338 17.7217 16.9561H17.3957C15.8479 16.9562 14.5886 18.2154 14.5886 19.7632ZM17.48 14.4362C17.48 13.0466 18.6104 11.9162 20 11.9162C21.3895 11.9162 22.52 13.0466 22.52 14.4362C22.52 15.8257 21.3895 16.9562 20 16.9562C18.6104 16.9562 17.48 15.8257 17.48 14.4362ZM22.6043 17.8351C23.6675 17.8351 24.5324 18.7001 24.5324 19.7632V21.9281H22.9253V21.1837C22.9253 20.941 22.7286 20.7443 22.4859 20.7443C22.2432 20.7443 22.0464 20.941 22.0464 21.1837V21.9281H17.9534V21.1837C17.9534 20.941 17.7567 20.7443 17.514 20.7443C17.2713 20.7443 17.0745 20.941 17.0745 21.1837V21.9281H15.4675V19.7632C15.4675 18.7001 16.3324 17.8351 17.3956 17.8351H22.6043Z" fill="black"/>
<path d="M20 7.06268C20.2427 7.06268 20.4395 6.86592 20.4395 6.62322V5.43945C20.4395 5.19676 20.2427 5 20 5C19.7573 5 19.5605 5.19676 19.5605 5.43945V6.62322C19.5605 6.86592 19.7573 7.06268 20 7.06268Z" fill="black"/>
<path d="M14.2331 8.28617C14.3145 8.42714 14.4622 8.50595 14.6141 8.50595C14.6886 8.50595 14.7642 8.48697 14.8334 8.44701C15.0436 8.32566 15.1156 8.05689 14.9943 7.84671L14.4024 6.8215C14.281 6.61132 14.0122 6.53925 13.8021 6.66066C13.5919 6.78201 13.5199 7.05078 13.6412 7.26095L14.2331 8.28617Z" fill="black"/>
<path d="M9.42584 11.7981L10.4511 12.39C10.5203 12.4299 10.5958 12.4489 10.6704 12.4489C10.8223 12.4489 10.97 12.3701 11.0514 12.2291C11.1727 12.019 11.1007 11.7502 10.8905 11.6289L9.8653 11.0369C9.65506 10.9155 9.38635 10.9876 9.265 11.1978C9.14365 11.408 9.21567 11.6768 9.42584 11.7981Z" fill="black"/>
<path d="M9.66692 17.3957C9.66692 17.153 9.47017 16.9562 9.22747 16.9562H8.0437C7.80101 16.9562 7.60425 17.153 7.60425 17.3957C7.60425 17.6384 7.80101 17.8351 8.0437 17.8351H9.22747C9.47017 17.8351 9.66692 17.6384 9.66692 17.3957Z" fill="black"/>
<path d="M10.4511 22.4013L9.42584 22.9932C9.21567 23.1146 9.14365 23.3833 9.265 23.5935C9.34639 23.7345 9.4941 23.8133 9.64598 23.8133C9.72051 23.8133 9.7961 23.7943 9.8653 23.7544L10.8905 23.1624C11.1007 23.0411 11.1727 22.7723 11.0514 22.5621C10.93 22.3519 10.6612 22.28 10.4511 22.4013Z" fill="black"/>
<path d="M25.1664 8.44709C25.2356 8.48705 25.3111 8.50604 25.3857 8.50604C25.5376 8.50604 25.6853 8.42717 25.7667 8.28625L26.3586 7.26104C26.4799 7.05086 26.4079 6.78209 26.1977 6.66075C25.9876 6.53928 25.7188 6.61141 25.5974 6.82158L25.0055 7.84674C24.8841 8.05698 24.9561 8.32575 25.1664 8.44709Z" fill="black"/>
<path d="M29.3294 12.4489C29.404 12.4489 29.4796 12.43 29.5488 12.39L30.574 11.7981C30.7842 11.6767 30.8562 11.408 30.7348 11.1978C30.6135 10.9876 30.3446 10.9155 30.1345 11.037L29.1093 11.6289C28.8991 11.7502 28.8271 12.019 28.9485 12.2292C29.0299 12.3701 29.1776 12.4489 29.3294 12.4489Z" fill="black"/>
<path d="M31.9561 16.9562H30.7723C30.5296 16.9562 30.3329 17.153 30.3329 17.3957C30.3329 17.6384 30.5296 17.8351 30.7723 17.8351H31.9561C32.1988 17.8351 32.3956 17.6384 32.3956 17.3957C32.3956 17.153 32.1988 16.9562 31.9561 16.9562Z" fill="black"/>
<path d="M30.574 22.9932L29.5488 22.4013C29.3386 22.2799 29.0698 22.3519 28.9485 22.5621C28.8271 22.7723 28.8991 23.041 29.1093 23.1624L30.1345 23.7543C30.2037 23.7943 30.2793 23.8132 30.3538 23.8132C30.5057 23.8132 30.6534 23.7344 30.7348 23.5935C30.8562 23.3833 30.7842 23.1145 30.574 22.9932Z" fill="black"/>
</g>
<defs>
<clipPath id="clip0">
<rect width="30" height="30" fill="white" transform="translate(5 5)"/>
</clipPath>
</defs>
</svg>
