<svg width="40" height="40" viewBox="0 0 40 40" fill="none" xmlns="http://www.w3.org/2000/svg">
<circle cx="20" cy="20" r="20" fill="white"/>
<path d="M11.6304 18.6913C11.6114 18.5575 11.6018 18.4214 11.6019 18.2839C11.6033 16.7904 12.7866 15.5396 14.278 15.4596C15.9092 15.3721 17.2643 16.6741 17.2643 18.2866V18.2908C17.2642 18.511 17.4442 18.6912 17.6645 18.6912L19.3005 18.6912C19.5162 18.6912 19.6911 18.5163 19.6911 18.3005L19.691 15.0511C19.6909 14.7446 19.8642 14.4644 20.1383 14.3274C20.4126 14.1905 20.7406 14.2202 20.9856 14.4042C21.2047 14.5688 21.4676 14.6528 21.7439 14.6461C22.3602 14.6312 22.8762 14.1425 22.9231 13.5278C22.9774 12.8162 22.4137 12.2197 21.7133 12.2197C21.4525 12.2197 21.2047 12.3007 20.9959 12.4542C20.8259 12.5793 20.6174 12.6463 20.408 12.6199C19.9826 12.5662 19.6909 12.2128 19.6909 11.8151V7.75684C19.6909 7.54111 19.516 7.36621 19.3003 7.36621H9.17515C8.72837 7.36621 8.36621 7.72837 8.36621 8.17515V18.3007C8.36621 18.5165 8.54111 18.6914 8.75684 18.6914H11.6304V18.6913Z" fill="#C1E3A0"/>
<path d="M21.3088 10.3168C21.3088 10.4814 21.4467 10.6095 21.6112 10.6037C21.6452 10.6025 21.6792 10.602 21.7134 10.602C23.3259 10.602 24.6279 11.957 24.5404 13.5883C24.4604 15.08 23.2092 16.2634 21.7154 16.2644C21.6793 16.2644 21.6433 16.2638 21.6075 16.2625C21.4436 16.2565 21.3089 16.3915 21.3089 16.5555L21.3089 18.3006C21.3089 18.5164 21.4838 18.6913 21.6996 18.6913L24.9296 18.6912C25.1857 18.6912 25.4335 18.8025 25.5894 19.0057C25.8151 19.3002 25.8106 19.6997 25.5957 19.986C25.4312 20.205 25.3472 20.4678 25.3539 20.7439C25.3687 21.3602 25.8572 21.8762 26.4719 21.9232C27.1836 21.9777 27.7803 21.414 27.7803 20.7135C27.7803 20.4528 27.6992 20.2051 27.5458 19.9963C27.4208 19.8261 27.3537 19.6176 27.3802 19.4081C27.434 18.9828 27.7874 18.6913 28.185 18.6913H32.2432C32.4589 18.6913 32.6338 18.5164 32.6338 18.3006V8.17515C32.6338 7.72842 32.2716 7.36621 31.8249 7.36621H21.6995C21.4837 7.36621 21.3088 7.54111 21.3088 7.75684V10.3168Z" fill="#C9DBFD"/>
<path d="M19.3875 28.3964C19.2847 28.4 19.1809 28.3981 19.0765 28.3907C17.6919 28.2917 16.573 27.1784 16.4644 25.7945C16.3337 24.1311 17.6503 22.7357 19.2866 22.7357C19.3208 22.7357 19.3548 22.7363 19.3888 22.7375C19.5533 22.7433 19.6913 22.6152 19.6913 22.4506L19.6912 20.6997C19.6912 20.484 19.5163 20.3091 19.3006 20.3091L16.0702 20.3091C15.8141 20.3091 15.5662 20.1978 15.4104 19.9945C15.1847 19.6998 15.1893 19.3005 15.4042 19.0144C15.5687 18.7954 15.6527 18.5328 15.6461 18.2567C15.6315 17.6405 15.1432 17.1242 14.5286 17.077C13.8166 17.0222 13.2198 17.5861 13.2198 18.2867C13.2198 18.5476 13.3009 18.7954 13.4546 19.0044C13.5797 19.1745 13.6467 19.3829 13.6201 19.5924C13.5663 20.0177 13.2129 20.3092 12.8153 20.3092H8.75684C8.54111 20.3092 8.36621 20.4841 8.36621 20.6998V30.8249C8.36621 31.2717 8.72837 31.6339 9.17515 31.6339H19.3005C19.5162 31.6339 19.6911 31.459 19.6911 31.2432V28.6846C19.6911 28.5193 19.5526 28.3907 19.3875 28.3964Z" fill="#FFE07D"/>
<path d="M29.3961 20.6066C29.3975 20.6424 29.3981 20.6782 29.3981 20.7142C29.3977 22.2043 28.2207 23.4543 26.7331 23.5398C25.0969 23.6338 23.7357 22.3296 23.7357 20.7134C23.7357 20.6793 23.7362 20.6452 23.7375 20.6113C23.7432 20.4469 23.6152 20.309 23.4506 20.309L21.6997 20.309C21.4839 20.309 21.309 20.4839 21.309 20.6996L21.3091 23.9491C21.3091 24.3129 21.0651 24.6397 20.6979 24.7338C20.4558 24.7959 20.2009 24.7314 19.9988 24.5844C19.8031 24.4421 19.5737 24.3631 19.3315 24.3544C18.6872 24.3312 18.1263 24.8287 18.0769 25.4716C18.0222 26.1835 18.586 26.7803 19.2866 26.7803C19.5474 26.7803 19.7952 26.6992 20.004 26.5457C20.1741 26.4207 20.3825 26.3537 20.592 26.3802C21.0173 26.4339 21.3089 26.7873 21.3089 27.1849V31.2431C21.3089 31.4589 21.4838 31.6338 21.6996 31.6338H31.8249C32.2716 31.6338 32.6338 31.2716 32.6338 30.8248V20.6996C32.6338 20.4839 32.4589 20.309 32.2432 20.309H29.6881C29.5246 20.309 29.3901 20.4432 29.3961 20.6066Z" fill="#E27F84"/>
<path d="M31.8248 7.36621H30.7018C31.1486 7.36621 31.5107 7.72837 31.5107 8.17515V18.3005C31.5107 18.5163 31.3358 18.6912 31.1201 18.6912H32.2431C32.4589 18.6912 32.6338 18.5163 32.6338 18.3005V8.17515C32.6338 7.72837 32.2716 7.36621 31.8248 7.36621Z" fill="#AECAFC"/>
<path d="M23.8066 18.6911L21.6991 18.6921H21.6996H23.8071L23.8066 18.6911Z" fill="#AECAFC"/>
<path d="M32.2431 20.309H31.1201C31.3358 20.309 31.5107 20.4839 31.5107 20.6996V30.8249C31.5107 31.2716 31.1486 31.6338 30.7018 31.6338H31.8248C32.2716 31.6338 32.6338 31.2716 32.6338 30.8249V20.6996C32.6338 20.4838 32.4589 20.309 32.2431 20.309Z" fill="#C9646D"/>
<path d="M8.36621 19.0576H11.6304C11.7365 19.0576 11.8374 19.0116 11.9069 18.9314C11.9765 18.8513 12.0079 18.7449 11.9929 18.6398C11.9765 18.5239 11.9681 18.405 11.9681 18.2867C11.9681 16.9274 13.0739 15.8217 14.4331 15.8217C15.7923 15.8217 16.8981 16.9274 16.8981 18.2867C16.8981 18.4052 16.8897 18.5239 16.8733 18.6396C16.8583 18.7447 16.8897 18.8511 16.9593 18.9313C17.0289 19.0115 17.1297 19.0575 17.2359 19.0575L19.6912 19.0574C19.7883 19.0574 19.8814 19.0188 19.9501 18.9501C20.0188 18.8815 20.0574 18.7884 20.0574 18.6912L20.0572 15.0511C20.0572 14.8823 20.1511 14.7305 20.302 14.6551C20.4531 14.5795 20.6308 14.5957 20.7659 14.6972C21.0408 14.9036 21.3685 15.0127 21.7134 15.0127C22.5844 15.0127 23.293 14.3041 23.293 13.4331C23.293 12.5621 22.5844 11.8535 21.7134 11.8535C21.3683 11.8535 21.0407 11.9626 20.7659 12.169C20.6308 12.2705 20.453 12.2867 20.3021 12.2112C20.151 12.1357 20.0572 11.984 20.0572 11.8151V7.36621C20.0572 7.16392 19.8932 7 19.691 7H9.17515C8.52715 7 8 7.52715 8 8.1751V9.13701C8 9.33931 8.16396 9.50322 8.36621 9.50322C8.56846 9.50322 8.73242 9.33931 8.73242 9.13701V8.1751C8.73242 7.93101 8.93101 7.73242 9.17515 7.73242H19.3248V11.8151C19.3248 12.2633 19.5739 12.6661 19.9748 12.8664C20.3756 13.0668 20.8474 13.0239 21.2058 12.7547C21.3527 12.6443 21.5282 12.5859 21.7134 12.5859C22.1805 12.5859 22.5605 12.966 22.5605 13.4331C22.5605 13.9002 22.1805 14.2803 21.7134 14.2803C21.5283 14.2803 21.3527 14.2219 21.2057 14.1115C20.8474 13.8424 20.3758 13.7996 19.9747 13.9998C19.5738 14.2002 19.3248 14.6031 19.3248 15.0511L19.3249 18.325L17.6303 18.325C17.6304 18.3123 17.6305 18.2995 17.6305 18.2867C17.6305 16.5236 16.1961 15.0893 14.4331 15.0893C12.67 15.0893 11.2357 16.5236 11.2357 18.2867C11.2357 18.2995 11.2357 18.3123 11.2359 18.3251H8.73242V10.6019C8.73242 10.3996 8.56846 10.2357 8.36621 10.2357C8.16396 10.2357 8 10.3996 8 10.6019V18.6914C8 18.8936 8.16396 19.0576 8.36621 19.0576Z" fill="black"/>
<path d="M10.3502 11.4108V9.38839C10.3502 9.3673 10.3674 9.35016 10.3884 9.35016H12.4107C12.613 9.35016 12.7769 9.18619 12.7769 8.98395C12.7769 8.78165 12.613 8.61774 12.4107 8.61774H10.3885C9.9635 8.61774 9.6178 8.96344 9.6178 9.38839V11.4108C9.6178 11.6131 9.78176 11.777 9.98401 11.777C10.1863 11.777 10.3502 11.6131 10.3502 11.4108Z" fill="black"/>
<path d="M30.6115 8.61774H28.5891C28.3869 8.61774 28.2229 8.78165 28.2229 8.98395C28.2229 9.18624 28.3869 9.35016 28.5891 9.35016H30.6115C30.6326 9.35016 30.6498 9.36735 30.6498 9.38839V11.4107C30.6498 11.613 30.8137 11.7769 31.016 11.7769C31.2182 11.7769 31.3822 11.613 31.3822 11.4107V9.38839C31.3822 8.96344 31.0364 8.61774 30.6115 8.61774Z" fill="black"/>
<path d="M31.3822 29.6116V27.5891C31.3822 27.3868 31.2182 27.2229 31.016 27.2229C30.8137 27.2229 30.6498 27.3868 30.6498 27.5891V29.6116C30.6498 29.6327 30.6326 29.6498 30.6115 29.6498H28.5892C28.387 29.6498 28.223 29.8137 28.223 30.016C28.223 30.2183 28.387 30.3822 28.5892 30.3822H30.6115C31.0364 30.3822 31.3822 30.0365 31.3822 29.6116Z" fill="black"/>
<path d="M12.4109 29.6498H10.3885C10.3674 29.6498 10.3502 29.6326 10.3502 29.6115V27.5892C10.3502 27.3869 10.1863 27.223 9.98401 27.223C9.78176 27.223 9.6178 27.3869 9.6178 27.5892V29.6115C9.6178 30.0365 9.96355 30.3822 10.3885 30.3822H12.4109C12.6131 30.3822 12.7771 30.2183 12.7771 30.016C12.7771 29.8137 12.6131 29.6498 12.4109 29.6498Z" fill="black"/>
<path d="M31.8249 7H21.3088C21.1066 7 20.9426 7.16392 20.9426 7.36621V10.6303C20.9426 10.7364 20.9886 10.8373 21.0688 10.9069C21.1489 10.9764 21.2552 11.0077 21.3604 10.9929C21.4761 10.9765 21.5949 10.9681 21.7134 10.9681C23.0726 10.9681 24.1784 12.0739 24.1784 13.4331C24.1784 14.7923 23.0726 15.8981 21.7134 15.8981C21.5952 15.8981 21.4764 15.8897 21.3603 15.8733C21.2553 15.8585 21.1489 15.8898 21.0688 15.9594C20.9887 16.029 20.9427 16.1298 20.9427 16.2359L20.9428 18.6911C20.9428 18.8934 21.1067 19.0573 21.309 19.0573L24.9489 19.0573C25.1178 19.0573 25.2695 19.1511 25.345 19.3021C25.4204 19.4532 25.4043 19.6309 25.3029 19.7658C25.0964 20.0407 24.9873 20.3684 24.9873 20.7133C24.9873 21.5843 25.6959 22.293 26.5669 22.293C27.4379 22.293 28.1465 21.5843 28.1465 20.7133C28.1465 20.3684 28.0374 20.0407 27.8309 19.7659C27.7295 19.6309 27.7134 19.4532 27.7889 19.3022C27.8644 19.1512 28.0161 19.0573 28.1849 19.0573H32.6338C32.836 19.0573 33 18.8934 33 18.6911V8.1751C33 7.52715 32.4729 7 31.8249 7V7ZM32.2676 18.325H28.1849C27.7367 18.325 27.3339 18.574 27.1337 18.9749C26.9333 19.3758 26.9761 19.8475 27.2453 20.2058C27.3557 20.3528 27.4141 20.5284 27.4141 20.7134C27.4141 21.1806 27.034 21.5606 26.5669 21.5606C26.0998 21.5606 25.7197 21.1806 25.7197 20.7134C25.7197 20.5284 25.7781 20.3528 25.8885 20.2058C26.1577 19.8475 26.2004 19.3758 26.0002 18.9749C25.7999 18.574 25.3971 18.3249 24.9489 18.3249L21.6752 18.325L21.6751 16.6303C23.4564 16.6499 24.9108 15.209 24.9108 13.4331C24.9108 11.6701 23.4765 10.2357 21.7134 10.2357C21.7006 10.2357 21.6879 10.2358 21.6751 10.2359V7.73242H31.8249C32.069 7.73242 32.2676 7.93101 32.2676 8.1751V18.325H32.2676Z" fill="black"/>
<path d="M19.9312 28.0932C19.8511 28.0235 19.7448 27.9922 19.6397 28.0071C19.5236 28.0235 19.4048 28.0319 19.2866 28.0319C17.9274 28.0319 16.8216 26.9261 16.8216 25.5669C16.8216 24.2077 17.9274 23.1019 19.2866 23.1019C19.4049 23.1019 19.5238 23.1103 19.6399 23.1267C19.7451 23.1418 19.8513 23.1102 19.9314 23.0406C20.0115 22.971 20.0575 22.8702 20.0575 22.7641L20.0574 20.309C20.0574 20.1067 19.8935 19.9428 19.6912 19.9428L16.051 19.9429C15.8822 19.9429 15.7304 19.849 15.6549 19.6979C15.5795 19.5469 15.5956 19.3693 15.6971 19.2343C15.9036 18.9593 16.0127 18.6316 16.0127 18.2867C16.0127 17.4157 15.3041 16.707 14.4331 16.707C13.5621 16.707 12.8535 17.4156 12.8535 18.2866C12.8535 18.6316 12.9627 18.9593 13.1693 19.2344C13.2707 19.3693 13.2868 19.547 13.2114 19.698C13.1359 19.8491 12.9842 19.9429 12.8153 19.9429H8.36621C8.16396 19.9429 8 20.1068 8 20.3091V30.8249C8 31.4729 8.52715 32 9.17515 32H19.6911C19.8934 32 20.0573 31.8361 20.0573 31.6338V28.3697C20.0573 28.2636 20.0113 28.1627 19.9312 28.0932ZM19.3249 31.2676H9.17515C8.93101 31.2676 8.73242 31.069 8.73242 30.8249V20.6753H12.8153C13.2635 20.6753 13.6663 20.4262 13.8666 20.0253C14.0668 19.6244 14.024 19.1527 13.7548 18.7945C13.6443 18.6473 13.5859 18.4718 13.5859 18.2867C13.5859 17.8195 13.9659 17.4395 14.4331 17.4395C14.9002 17.4395 15.2802 17.8195 15.2802 18.2867C15.2802 18.4718 15.2218 18.6474 15.1114 18.7943C14.8421 19.1527 14.7993 19.6244 14.9997 20.0253C15.2 20.4262 15.6028 20.6752 16.0509 20.6752L19.3249 20.6752L19.325 22.3697C19.3122 22.3695 19.2993 22.3694 19.2865 22.3694C17.5235 22.3694 16.0891 23.8038 16.0891 25.5668C16.0891 27.3299 17.5235 28.7643 19.2865 28.7643C19.2993 28.7643 19.312 28.7642 19.3248 28.764V31.2676H19.3249Z" fill="black"/>
<path d="M32.6338 19.9427H29.3697C29.2635 19.9427 29.1626 19.9887 29.0931 20.0688C29.0236 20.149 28.9922 20.2553 29.0071 20.3604C29.0236 20.4762 29.0319 20.595 29.0319 20.7133C29.0319 22.0726 27.9261 23.1783 26.5669 23.1783C25.2077 23.1783 24.1019 22.0725 24.1019 20.7133C24.1019 20.595 24.1103 20.4762 24.1267 20.3604C24.1417 20.2553 24.1103 20.1489 24.0407 20.0688C23.9712 19.9886 23.8703 19.9426 23.7642 19.9426L21.3091 19.9427C21.212 19.9427 21.1188 19.9813 21.0502 20.05C20.9815 20.1186 20.9429 20.2118 20.9429 20.3089L20.943 23.949C20.943 24.1179 20.8492 24.2697 20.6981 24.3451C20.547 24.4206 20.3693 24.4044 20.2343 24.3029C19.9594 24.0964 19.6317 23.9873 19.2866 23.9873C18.4156 23.9873 17.707 24.6959 17.707 25.5669C17.707 26.4379 18.4156 27.1465 19.2866 27.1465C19.6316 27.1465 19.9592 27.0374 20.2341 26.8309C20.3692 26.7295 20.5468 26.7134 20.6979 26.7889C20.8489 26.8643 20.9427 27.016 20.9427 27.1849V31.6338C20.9427 31.8361 21.1067 32 21.3089 32H29.582C29.7843 32 29.9482 31.8361 29.9482 31.6338C29.9482 31.4315 29.7843 31.2676 29.582 31.2676H21.6751V27.1849C21.6751 26.7367 21.426 26.3339 21.0252 26.1337C20.6243 25.9334 20.1526 25.9761 19.7942 26.2453C19.6472 26.3557 19.4716 26.414 19.2865 26.414C18.8194 26.414 18.4394 26.034 18.4394 25.5669C18.4394 25.0997 18.8194 24.7197 19.2865 24.7197C19.4717 24.7197 19.6472 24.778 19.7942 24.8885C20.1525 25.1578 20.6243 25.2007 21.0252 25.0004C21.4262 24.8001 21.6753 24.3972 21.6753 23.949L21.6751 20.6751L23.3695 20.6751C23.3694 20.6878 23.3693 20.7005 23.3693 20.7133C23.3693 22.4763 24.8037 23.9107 26.5668 23.9107C28.3299 23.9107 29.7642 22.4763 29.7642 20.7133C29.7642 20.7005 29.7641 20.6878 29.764 20.6751H32.2676V30.8248C32.2676 31.0689 32.069 31.2675 31.8248 31.2675H31.016C30.8137 31.2675 30.6498 31.4314 30.6498 31.6337C30.6498 31.836 30.8137 31.9999 31.016 31.9999H31.8248C32.4728 31.9999 33 31.4728 33 30.8248V20.3089C33 20.1066 32.836 19.9427 32.6338 19.9427Z" fill="black"/>
</svg>
