<svg width="40" height="40" viewBox="0 0 40 40" fill="none" xmlns="http://www.w3.org/2000/svg">
<circle cx="20" cy="20" r="20" fill="white"/>
<g clip-path="url(#clip0)">
<path d="M21.5876 27.5985L18.1979 30.9882L15.9401 31.173L12.263 34.8502C12.0632 35.0499 11.7393 35.0499 11.5396 34.8502L7.14957 30.4602C6.94982 30.2605 6.94982 29.9366 7.14957 29.7368L8.26837 28.618C8.30773 28.5786 8.33317 28.5275 8.34083 28.4724L8.53361 27.0883C8.67628 26.0638 9.14933 25.1145 9.88019 24.3836L14.1264 20.1374L21.5876 27.5985Z" fill="#F9A08F"/>
<path d="M20.6359 26.6465L17.8482 29.4342C16.8282 30.4541 15.1692 30.4541 14.1493 29.4342C13.5496 28.8345 13.3028 28.0141 13.4083 27.2324C13.2542 27.1332 13.1083 27.0167 12.9739 26.8823C12.4627 26.3712 12.2076 25.7004 12.2086 25.0296C11.9782 24.9094 11.7621 24.753 11.5685 24.5594C11.2285 24.2194 11.0024 23.8097 10.889 23.3752L14.1268 20.1374L20.6359 26.6465Z" fill="#F69583"/>
<path d="M16.088 28.3493H15.9165C15.0094 28.3493 14.1054 28.8365 13.667 29.5614C13.5947 29.6808 13.4681 29.7466 13.3379 29.7466C13.2706 29.7466 13.2019 29.7286 13.14 29.6913C12.9588 29.5817 12.9006 29.3455 13.0102 29.1643C13.5567 28.2611 14.5978 27.6578 15.7043 27.5887L15.7046 25.3045C15.7046 24.3408 16.2613 23.4622 17.0314 23.0423L17.6079 23.6189C16.9362 23.8493 16.4718 24.611 16.4714 25.3045V27.966C16.4714 28.1779 16.2999 28.3493 16.088 28.3493Z" fill="#F69583"/>
<path d="M12.4859 23.642C11.9712 23.1273 11.9712 22.2927 12.4859 21.778L14.4573 19.8066C14.8374 19.4265 15.4537 19.4265 15.8337 19.8066L16.3212 20.2941C16.7013 20.6742 16.7013 21.2904 16.3212 21.6705L14.3498 23.642C13.8351 24.1567 13.0006 24.1567 12.4859 23.642Z" fill="#FDB0A0"/>
<path d="M16.3212 21.6703L14.3497 23.6417C13.8351 24.1563 13.0008 24.1563 12.4856 23.6417C12.3322 23.4883 12.2243 23.3061 12.1628 23.1123C12.6181 23.2576 13.1363 23.1496 13.497 22.789L15.4685 20.8175C15.7851 20.5009 15.8378 20.02 15.6265 19.6486C15.7007 19.6906 15.7703 19.7432 15.8337 19.8067L16.3212 20.2942C16.7013 20.6743 16.7013 21.2902 16.3212 21.6703Z" fill="#F9A08F"/>
<path d="M13.891 25.9647C13.3763 25.45 13.3763 24.6155 13.891 24.1008L16.3213 21.6706C16.7013 21.2905 17.3176 21.2905 17.6977 21.6706L18.1852 22.1581C18.5653 22.5381 18.5653 23.1544 18.1852 23.5345L15.7549 25.9647C15.2402 26.4794 14.4057 26.4794 13.891 25.9647Z" fill="#FDB0A0"/>
<path d="M18.1854 23.5344L15.755 25.9647C15.2404 26.4793 14.4055 26.4793 13.8909 25.9647C13.737 25.8108 13.6295 25.6286 13.5676 25.4348C14.0229 25.5806 14.5411 25.4731 14.9022 25.1119L17.3326 22.6816C17.6498 22.3644 17.7024 21.883 17.4902 21.5117C17.5644 21.5536 17.6344 21.6068 17.6979 21.6703L18.1854 22.1578C18.5654 22.5379 18.5654 23.1543 18.1854 23.5344Z" fill="#F9A08F"/>
<path d="M15.0667 28.5168C14.552 28.0021 14.552 27.1675 15.0667 26.6528L18.1851 23.5344C18.5652 23.1543 19.1815 23.1543 19.5616 23.5344L20.0491 24.0219C20.4291 24.402 20.4291 25.0182 20.0491 25.3983L16.9306 28.5168C16.4159 29.0315 15.5814 29.0315 15.0667 28.5168Z" fill="#FDB0A0"/>
<path d="M20.049 25.3981L16.9303 28.5168C16.4159 29.0312 15.5815 29.0315 15.0667 28.5168C14.9242 28.3743 14.8208 28.2064 14.7574 28.0281C15.2219 28.1938 15.7609 28.0911 16.1327 27.7192L19.2514 24.6005C19.578 24.2739 19.6239 23.7729 19.3881 23.3975C19.45 23.4354 19.5082 23.4814 19.5613 23.5346L20.0489 24.0222C20.4292 24.4022 20.4292 25.0179 20.049 25.3981Z" fill="#F9A08F"/>
<path d="M17.6187 29.6925C17.104 29.1778 17.104 28.3433 17.6187 27.8286L20.0489 25.3983C20.429 25.0183 21.0453 25.0183 21.4253 25.3983L21.9128 25.8858C22.2929 26.2659 22.2929 26.8822 21.9128 27.2623L19.4826 29.6925C18.9679 30.2072 18.1334 30.2072 17.6187 29.6925Z" fill="#FDB0A0"/>
<path d="M21.9129 27.262L19.4825 29.6923C18.9679 30.2069 18.1336 30.2069 17.6189 29.6923C17.4762 29.5496 17.3729 29.3823 17.3099 29.2043C17.7744 29.3695 18.3126 29.2662 18.6844 28.8943L21.1148 26.4645C21.4412 26.1381 21.4872 25.6373 21.253 25.2613C21.3143 25.2991 21.3721 25.3452 21.4254 25.3984L21.9129 25.8859C22.2929 26.266 22.2929 26.8819 21.9129 27.262Z" fill="#F9A08F"/>
<path d="M19.0171 24.0209L19.2348 29.1636C19.259 29.7334 19.1412 30.3002 18.8921 30.8131L18.1267 32.3896C17.899 32.8584 17.497 33.2195 17.0066 33.3957L16.0855 33.7265C15.6192 33.8941 15.1274 33.9797 14.6319 33.9797H11.8563L12.2337 33.1247C12.6216 32.2457 12.9228 31.333 13.1899 30.4101C13.5386 29.2051 14.6502 28.3241 15.9675 28.3241H16.4459V25.3557C16.4459 24.2874 17.3119 23.4214 18.3802 23.4214C18.7176 23.4214 18.9967 23.6841 19.0171 24.0209Z" fill="#F9A08F"/>
<path d="M18.1265 32.3894L18.8922 30.8134C19.1414 30.3 19.2593 29.7333 19.2345 29.1635L19.017 24.0212C19.0069 23.8597 18.9376 23.7152 18.8308 23.6083C18.7151 23.4927 18.5555 23.4211 18.3802 23.4211C17.8989 23.4215 17.4589 23.5973 17.1208 23.8877C17.1295 23.8872 17.1378 23.8872 17.147 23.8872C17.3149 23.8872 17.4681 23.9552 17.5792 24.0662C17.681 24.1681 17.7471 24.3066 17.7567 24.4612L17.9159 28.2533C17.9393 28.7988 17.8264 29.342 17.5878 29.833L16.8547 31.3424C16.6372 31.7912 16.2518 32.1371 15.7825 32.3055L14.2257 32.8648L12.6362 32.7784C12.1895 32.7541 11.7534 32.921 11.437 33.2374L10.6819 33.9925L11.5397 34.8504C11.7395 35.0501 12.0634 35.0501 12.2631 34.8504L13.1338 33.9797H14.6319C15.1276 33.9797 15.6195 33.894 16.0859 33.7264L17.0065 33.3957C17.497 33.2198 17.899 32.8583 18.1265 32.3894Z" fill="#F69583"/>
<path d="M13.1439 33.9694L12.3771 34.7362H12.1738C11.9618 34.7362 11.79 34.5644 11.7904 34.3528C11.7904 34.1408 11.9622 33.969 12.1738 33.9694L13.1439 33.9694Z" fill="#EA8678"/>
<path d="M24.5985 24.5876L27.9881 21.1979L28.173 18.9401L31.8501 15.263C32.0499 15.0632 32.0499 14.7393 31.8501 14.5396L27.4602 10.1496C27.2604 9.94982 26.9365 9.94982 26.7367 10.1496L25.6179 11.2684C25.5786 11.3077 25.5275 11.3332 25.4724 11.3408L24.0882 11.5336C23.0637 11.6763 22.1144 12.1493 21.3836 12.8802L17.1373 17.1264L24.5985 24.5876Z" fill="#BA5D4F"/>
<path d="M20.642 15.4859C20.1273 14.9712 19.2928 14.9712 18.7781 15.4859L16.8067 17.4574C16.4266 17.8375 16.4266 18.4537 16.8067 18.8338L17.2942 19.3213C17.6742 19.7014 18.2905 19.7014 18.6706 19.3213L20.642 17.3499C21.1567 16.8352 21.1567 16.0006 20.642 15.4859Z" fill="#A34F41"/>
<path d="M20.6418 17.3498L18.6703 19.3212C18.2902 19.7013 17.6743 19.7013 17.2942 19.3212L16.8067 18.8337C16.7433 18.7703 16.6906 18.7007 16.6487 18.6266C17.0201 18.8378 17.5009 18.7852 17.8176 18.4685L19.7891 16.497C20.1497 16.1364 20.2576 15.6182 20.1124 15.1629C20.3062 15.2243 20.4883 15.3322 20.6418 15.4857C21.1564 16.0008 21.1564 16.8352 20.6418 17.3498Z" fill="#873F30"/>
<path d="M22.9648 16.8911C22.4501 16.3764 21.6155 16.3764 21.1008 16.8911L18.6706 19.3213C18.2905 19.7014 18.2905 20.3177 18.6706 20.6977L19.1581 21.1852C19.5381 21.5653 20.1544 21.5653 20.5345 21.1852L22.9647 18.755C23.4795 18.2403 23.4795 17.4058 22.9648 16.8911Z" fill="#A34F41"/>
<path d="M22.9647 18.755L20.5344 21.1854C20.1543 21.5654 19.5379 21.5654 19.1578 21.1854L18.6703 20.6979C18.6069 20.6344 18.5537 20.5644 18.5117 20.4902C18.8831 20.7025 19.3645 20.6498 19.6816 20.3326L22.112 17.9022C22.4731 17.5411 22.5806 17.0229 22.4348 16.5676C22.6287 16.6295 22.8108 16.737 22.9648 16.8909C23.4793 17.4055 23.4793 18.2404 22.9647 18.755Z" fill="#873F30"/>
<path d="M24.7995 19.4641C24.7301 19.3946 24.6872 19.2987 24.6871 19.1928V18.7143C24.6871 17.5578 25.2786 16.5096 26.2692 15.9104C26.4505 15.8007 26.6862 15.8589 26.7961 16.0401C26.9057 16.2214 26.8476 16.4573 26.6663 16.5669C25.9075 17.026 25.4544 17.8287 25.4545 18.7143V19.1928C25.4545 19.4047 25.2827 19.5765 25.0708 19.5765C24.9649 19.5765 24.8689 19.5335 24.7995 19.4641Z" fill="#A34F41"/>
<path d="M25.5168 18.0667C25.0021 17.5521 24.1676 17.5521 23.6529 18.0667L20.5344 21.1852C20.1544 21.5653 20.1544 22.1815 20.5344 22.5616L21.0219 23.0491C21.402 23.4292 22.0183 23.4292 22.3984 23.0491L25.5168 19.9307C26.0315 19.416 26.0315 18.5814 25.5168 18.0667Z" fill="#A34F41"/>
<path d="M25.5169 19.9305L22.3986 23.0489C22.3817 23.0658 22.3638 23.0821 22.3459 23.097L21.0138 23.0407L20.5344 22.5614C20.1544 22.1814 20.1544 21.5654 20.5344 21.1854L23.2968 18.423H24.3393C24.3757 18.1688 24.4365 17.9207 24.5204 17.6823C24.879 17.6649 25.2432 17.7933 25.5169 18.0669C26.0315 18.5816 26.0315 19.4159 25.5169 19.9305Z" fill="#873F30"/>
<path d="M26.6925 20.6189C26.1778 20.1042 25.3433 20.1042 24.8286 20.6189L22.3983 23.0491C22.0183 23.4292 22.0183 24.0454 22.3983 24.4255L22.8858 24.913C23.2659 25.2931 23.8822 25.2931 24.2623 24.913L26.6925 22.4828C27.2072 21.9681 27.2072 21.1336 26.6925 20.6189Z" fill="#A34F41"/>
<path d="M26.6923 20.619C26.1777 20.1039 25.3434 20.1039 24.8288 20.619L22.3984 23.0489C22.3825 23.0647 22.3677 23.0806 22.3534 23.0974L23.5281 23.1472C23.8468 23.1608 23.9972 23.5468 23.7716 23.7724L23.4465 24.0975C23.1232 24.4208 22.6286 24.4689 22.2546 24.2423C22.294 24.3078 22.3421 24.3692 22.3984 24.4255L22.8859 24.913C23.2659 25.2929 23.882 25.2929 24.262 24.913L26.6923 22.4826C27.2069 21.9679 27.2069 21.1336 26.6923 20.619Z" fill="#873F30"/>
<path d="M21.0208 22.0172L26.1636 22.2349C26.7333 22.259 27.3001 22.1412 27.8131 21.8922L29.3896 21.1267C29.8584 20.8991 30.2194 20.4971 30.3956 20.0066L30.7265 19.0856C30.894 18.6192 30.9796 18.1274 30.9796 17.6319V14.8564L30.1246 15.2337C29.2456 15.6216 28.3329 15.9229 27.41 16.19C26.2051 16.5387 25.324 17.6502 25.324 18.9675V19.446H22.3556C21.2874 19.446 20.4214 20.312 20.4214 21.3802C20.4213 21.7176 20.684 21.9967 21.0208 22.0172Z" fill="#BA5D4F"/>
<path d="M29.3893 21.1266L27.8133 21.8923C27.2999 22.1414 26.7333 22.2593 26.1635 22.2346L21.0212 22.0171C20.8596 22.007 20.7152 21.9377 20.6082 21.8308C20.4926 21.7152 20.421 21.5555 20.421 21.3803C20.4215 20.899 20.5972 20.459 20.8876 20.1209C20.8872 20.1296 20.8872 20.1379 20.8872 20.147C20.8872 20.315 20.9551 20.4682 21.0661 20.5792C21.168 20.6811 21.3066 20.7471 21.4612 20.7568L25.2532 20.9159C25.7987 20.9393 26.3419 20.8265 26.8329 20.5879L28.3424 19.8547C28.7911 19.6373 29.137 19.2519 29.3054 18.7825L29.8647 17.2258L29.7783 15.6363C29.754 15.1895 29.9209 14.7535 30.2373 14.4371L30.9925 13.6819L31.8503 14.5398C32.05 14.7395 32.05 15.0634 31.8503 15.2632L30.9796 16.1339V17.632C30.9796 18.1276 30.8939 18.6195 30.7264 19.086L30.3956 20.0066C30.2197 20.4971 29.8582 20.899 29.3893 21.1266Z" fill="#A34F41"/>
<path d="M31.7611 15.3521L30.9939 16.1193V14.9568C30.9939 14.7448 31.1657 14.573 31.3773 14.5734C31.5893 14.5734 31.7611 14.7452 31.7611 14.9572V15.3521Z" fill="#873F30"/>
<path d="M25.5621 28.6839C25.4637 28.6839 25.3654 28.6463 25.2904 28.5712L24.3101 27.5885C24.1604 27.4385 24.1607 27.1956 24.3107 27.046C24.4607 26.8963 24.7037 26.8966 24.8533 27.0466L25.8336 28.0293C25.9833 28.1793 25.983 28.4222 25.833 28.5718C25.7582 28.6465 25.6601 28.6839 25.5621 28.6839Z" fill="#E0D3CE"/>
<path d="M23.5878 29.6198C23.4048 29.6198 23.2428 29.4885 23.2102 29.3021L22.9982 28.0873C22.9618 27.8785 23.1015 27.6798 23.3102 27.6434C23.5189 27.6071 23.7176 27.7467 23.7541 27.9553L23.9661 29.1702C24.0026 29.3789 23.8629 29.5777 23.6541 29.6141C23.6319 29.6179 23.6097 29.6198 23.5878 29.6198Z" fill="#E0D3CE"/>
<path d="M26.4995 26.709C26.4776 26.709 26.4554 26.7071 26.433 26.7032L25.2182 26.4912C25.0096 26.4548 24.8699 26.2561 24.9063 26.0473C24.9428 25.8386 25.1412 25.6988 25.3502 25.7354L26.565 25.9474C26.7737 25.9838 26.9134 26.1825 26.877 26.3913C26.8445 26.5777 26.6825 26.709 26.4995 26.709Z" fill="#E0D3CE"/>
<path d="M14.4183 17.5402C14.3199 17.5402 14.2216 17.5026 14.1466 17.4275L13.1663 16.4448C13.0166 16.2948 13.0169 16.0519 13.1669 15.9022C13.3169 15.7525 13.5599 15.7529 13.7095 15.9029L14.6898 16.8855C14.8395 17.0355 14.8392 17.2785 14.6892 17.4281C14.6143 17.5028 14.5163 17.5402 14.4183 17.5402Z" fill="#E0D3CE"/>
<path d="M15.6232 16.8365C15.4402 16.8365 15.2783 16.7051 15.2457 16.5187L15.0337 15.3038C14.9973 15.0951 15.137 14.8964 15.3457 14.8599C15.5543 14.8236 15.7532 14.9632 15.7896 15.1719L16.0016 16.3868C16.0381 16.5955 15.8984 16.7942 15.6896 16.8306C15.6674 16.8346 15.6451 16.8365 15.6232 16.8365Z" fill="#E0D3CE"/>
<path d="M13.7162 18.7445C13.6943 18.7445 13.6721 18.7426 13.6497 18.7387L12.4349 18.5267C12.2262 18.4902 12.0865 18.2915 12.123 18.0828C12.1594 17.8741 12.3579 17.7343 12.5669 17.7708L13.7817 17.9829C13.9904 18.0193 14.1301 18.2181 14.0937 18.4268C14.0611 18.6131 13.8991 18.7445 13.7162 18.7445Z" fill="#E0D3CE"/>
</g>
<defs>
<clipPath id="clip0">
<rect width="25" height="25" fill="white" transform="translate(7 10)"/>
</clipPath>
</defs>
</svg>
