<svg width="40" height="40" viewBox="0 0 40 40" fill="none" xmlns="http://www.w3.org/2000/svg">
<circle cx="20" cy="20" r="20" fill="white"/>
<g clip-path="url(#clip0)">
<path d="M29.7009 22.3868C30.9025 21.0956 31.6281 19.3179 31.5807 17.3632C31.4918 13.6999 28.6485 10.7117 25.1442 10.5998C22.8093 10.5252 20.7349 11.7099 19.4953 13.5527C18.2875 11.7571 16.287 10.5863 14.0252 10.5965C10.3643 10.613 7.37878 13.7739 7.40793 17.6002C7.42238 19.4976 8.16462 21.2138 9.35719 22.4589L18.5244 31.985C19.0615 32.5432 19.9291 32.5432 20.4662 31.985L29.5643 22.5293C29.6031 22.49 29.6413 22.4502 29.6792 22.4099C29.6864 22.4025 29.6951 22.3939 29.7009 22.3868Z" fill="#FE88CF"/>
<path d="M31.5808 17.363C31.5028 14.1504 29.3063 11.4571 26.4034 10.7676C26.9161 11.7214 27.2198 12.8119 27.2479 13.9701C27.2954 15.925 26.5697 17.7026 25.3681 18.9938L25.3686 18.994L25.3464 19.017C25.3086 19.0572 25.2703 19.097 25.2316 19.1363L16.1335 28.592C15.9761 28.7555 15.7903 28.8708 15.5928 28.9384L18.5245 31.9849C19.0617 32.5431 19.9292 32.5431 20.4663 31.9849L29.5644 22.5293C29.6032 22.49 29.6414 22.4502 29.6792 22.4099C29.6864 22.4024 29.6952 22.3938 29.7009 22.3867C30.9025 21.0955 31.6282 19.3179 31.5808 17.363C31.5027 14.1504 31.6282 19.3179 31.5808 17.363Z" fill="#FC6BC9"/>
<path d="M9.65175 22.1768C8.48095 20.9545 7.82895 19.3281 7.81577 17.597C7.80224 15.8224 8.50004 14.0905 9.73017 12.8452C10.8958 11.6653 12.4219 11.0115 14.027 11.0043C14.036 11.0042 14.0449 11.0042 14.054 11.0042C16.0806 11.0042 17.9867 12.0406 19.157 13.7802C19.2327 13.8928 19.3596 13.9604 19.4953 13.9604C19.6311 13.9604 19.7579 13.8929 19.8336 13.7802C21.0469 11.9768 23.0265 10.9405 25.1311 11.0073C25.3556 11.0156 25.5445 10.8379 25.5518 10.6127C25.5589 10.3877 25.3823 10.1993 25.1572 10.1921C22.9585 10.1222 20.8805 11.1111 19.4952 12.8618C18.1596 11.1767 16.166 10.1886 14.054 10.1886C14.0438 10.1886 14.0335 10.1886 14.0233 10.1886C12.1998 10.1969 10.4691 10.9367 9.15 12.272C7.76855 13.6703 6.98496 15.6135 7.00009 17.6032C7.01489 19.5431 7.74736 21.3677 9.06328 22.7416L13.8931 27.7604C13.9731 27.8436 14.08 27.8855 14.187 27.8855C14.2887 27.8855 14.3906 27.8476 14.4697 27.7716C14.6319 27.6154 14.6369 27.3572 14.4808 27.1949L9.65175 22.1768Z" fill="black"/>
<path d="M31.9884 17.3532C31.9137 14.2764 29.9759 11.5491 27.1666 10.5666C26.9539 10.4921 26.7214 10.6043 26.647 10.8169C26.5727 11.0295 26.6848 11.2621 26.8973 11.3364C29.3883 12.2075 31.1066 14.6335 31.1732 17.373C31.2164 19.1535 30.5875 20.8355 29.4025 22.109C29.3957 22.1162 29.3892 22.1236 29.3822 22.1307C29.3466 22.1686 29.3106 22.2061 29.2707 22.2466L20.1726 31.7022C19.9904 31.8915 19.7499 31.9958 19.4955 31.9958C19.2411 31.9958 19.0006 31.8916 18.8184 31.7022L15.8867 28.6557C15.7305 28.4935 15.4724 28.4885 15.3101 28.6446C15.1478 28.8008 15.1428 29.059 15.299 29.2213L18.2307 32.2677C18.5681 32.6183 19.0173 32.8114 19.4955 32.8114C19.9738 32.8114 20.4229 32.6183 20.7602 32.2677L29.8549 22.8156C29.8959 22.774 29.9364 22.7319 29.9732 22.6927C29.9868 22.6785 30.0008 22.6646 30.0134 22.6496C31.3355 21.221 32.0367 19.341 31.9884 17.3532C31.9138 14.2764 32.0367 19.341 31.9884 17.3532Z" fill="black"/>
</g>
<defs>
<clipPath id="clip0">
<rect width="25" height="25" fill="white" transform="translate(7 9)"/>
</clipPath>
</defs>
</svg>
