<svg width="40" height="40" viewBox="0 0 40 40" fill="none" xmlns="http://www.w3.org/2000/svg">
<circle cx="20" cy="20" r="20" fill="white"/>
<path d="M20 16.25L10.625 17.1875C10.625 17.1875 11.5625 26.5625 20 27.5C28.4375 26.5625 29.375 17.1875 29.375 17.1875L20 16.25Z" fill="url(#paint0_linear)"/>
<path d="M23.4756 9.85626C23.7174 9.55249 23.8588 9.18117 23.8806 8.79355C23.9023 8.40593 23.8031 8.02113 23.5968 7.69227C23.3905 7.36341 23.0872 7.10669 22.7287 6.95756C22.3703 6.80844 21.9744 6.77425 21.5957 6.85972C21.3918 6.52924 21.0904 6.27021 20.733 6.11842C20.3756 5.96662 19.9799 5.92956 19.6005 6.01233C19.2211 6.09511 18.8768 6.29365 18.6151 6.58052C18.3534 6.8674 18.1873 7.22846 18.1396 7.61382C17.71 7.45667 17.2378 7.46203 16.8119 7.62889C16.3859 7.79575 16.0357 8.11259 15.8272 8.51973C15.6187 8.92687 15.5662 9.39621 15.6797 9.83935C15.7932 10.2825 16.0648 10.6688 16.4434 10.9256C16.1078 11.2364 15.8975 11.6591 15.852 12.1142C15.8064 12.5693 15.9288 13.0253 16.1961 13.3964C16.4634 13.7675 16.8572 14.0281 17.3032 14.1291C17.7493 14.2301 18.2169 14.1645 18.618 13.9448C18.7414 14.3854 19.0217 14.7657 19.4061 15.0139C19.7905 15.2621 20.2525 15.3612 20.7049 15.2924C21.1573 15.2236 21.5689 14.9917 21.8621 14.6405C22.1554 14.2892 22.31 13.8428 22.2969 13.3854C22.7452 13.476 23.2111 13.3996 23.607 13.1706C24.0029 12.9416 24.3014 12.5757 24.4463 12.1419C24.5912 11.7081 24.5725 11.2363 24.3938 10.8153C24.215 10.3944 23.8885 10.0533 23.4757 9.85626H23.4756Z" fill="url(#paint1_linear)"/>
<path d="M20 12.5317C21.0355 12.5317 21.875 11.6922 21.875 10.6567C21.875 9.62114 21.0355 8.78168 20 8.78168C18.9645 8.78168 18.125 9.62114 18.125 10.6567C18.125 11.6922 18.9645 12.5317 20 12.5317Z" fill="url(#paint2_linear)"/>
<path d="M30.1825 14.512C30.4243 14.2083 30.5659 13.8369 30.5877 13.4493C30.6095 13.0616 30.5104 12.6768 30.304 12.3479C30.0977 12.019 29.7943 11.7623 29.4359 11.6132C29.0774 11.4641 28.6814 11.43 28.3027 11.5156C28.0989 11.1851 27.7974 10.9261 27.44 10.7743C27.0826 10.6225 26.6869 10.5854 26.3075 10.6682C25.9281 10.751 25.5838 10.9495 25.3221 11.2364C25.0604 11.5233 24.8943 11.8843 24.8466 12.2697C24.4171 12.1128 23.945 12.1183 23.5192 12.2852C23.0935 12.4522 22.7434 12.769 22.5349 13.176C22.3265 13.5831 22.274 14.0523 22.3874 14.4953C22.5008 14.9383 22.7722 15.3246 23.1506 15.5815C22.8151 15.8923 22.6047 16.315 22.5592 16.7701C22.5137 17.2252 22.6361 17.6812 22.9034 18.0523C23.1707 18.4234 23.5644 18.6839 24.0105 18.7849C24.4566 18.8859 24.9241 18.8204 25.3252 18.6006C25.4489 19.0409 25.7292 19.4209 26.1135 19.6688C26.4978 19.9168 26.9596 20.0158 27.4117 19.947C27.8639 19.8783 28.2753 19.6466 28.5685 19.2955C28.8618 18.9445 29.0165 18.4984 29.0037 18.0412C29.452 18.1318 29.9179 18.0554 30.3138 17.8263C30.7096 17.5973 31.0081 17.2315 31.153 16.7977C31.2979 16.3639 31.2792 15.8921 31.1005 15.4712C30.9217 15.0502 30.5953 14.7091 30.1826 14.5121L30.1825 14.512Z" fill="url(#paint3_linear)"/>
<path d="M26.707 17.1875C27.7426 17.1875 28.582 16.348 28.582 15.3125C28.582 14.277 27.7426 13.4375 26.707 13.4375C25.6715 13.4375 24.832 14.277 24.832 15.3125C24.832 16.348 25.6715 17.1875 26.707 17.1875Z" fill="url(#paint4_linear)"/>
<path d="M16.12 12.6688C16.3619 12.365 16.5035 11.9937 16.5253 11.606C16.5471 11.2184 16.448 10.8335 16.2417 10.5046C16.0353 10.1757 15.732 9.91891 15.3734 9.76981C15.0149 9.62071 14.619 9.58661 14.2402 9.67222C14.0364 9.34174 13.7349 9.08271 13.3775 8.93092C13.0201 8.77912 12.6244 8.74205 12.245 8.82483C11.8656 8.90761 11.5213 9.10615 11.2596 9.39302C10.998 9.6799 10.8318 10.041 10.7841 10.4263C10.3546 10.2693 9.88243 10.2748 9.45662 10.4417C9.03081 10.6086 8.6807 10.9254 8.47222 11.3325C8.26373 11.7396 8.21125 12.2088 8.32466 12.6519C8.43807 13.0949 8.70954 13.4813 9.08797 13.7381C8.75252 14.0489 8.54226 14.4716 8.49677 14.9267C8.45128 15.3817 8.57369 15.8377 8.84097 16.2088C9.10825 16.5798 9.50195 16.8404 9.94796 16.9414C10.394 17.0425 10.8615 16.977 11.2626 16.7573C11.3864 17.1975 11.6668 17.5773 12.0511 17.8252C12.4353 18.0731 12.897 18.172 13.3491 18.1033C13.8012 18.0345 14.2126 17.8029 14.5058 17.4519C14.799 17.101 14.9538 16.655 14.9411 16.1979C15.3894 16.2885 15.8554 16.2121 16.2513 15.9831C16.6472 15.7541 16.9457 15.3882 17.0906 14.9544C17.2355 14.5206 17.2168 14.0488 17.038 13.6278C16.8592 13.2069 16.5327 12.8658 16.12 12.6688Z" fill="url(#paint5_linear)"/>
<path d="M12.6445 15.3442C13.6801 15.3442 14.5195 14.5047 14.5195 13.4692C14.5195 12.4336 13.6801 11.5942 12.6445 11.5942C11.609 11.5942 10.7695 12.4336 10.7695 13.4692C10.7695 14.5047 11.609 15.3442 12.6445 15.3442Z" fill="url(#paint6_linear)"/>
<path d="M22.6825 17.3245C22.9243 17.0208 23.0659 16.6494 23.0877 16.2618C23.1095 15.8741 23.0104 15.4893 22.8041 15.1604C22.5977 14.8315 22.2944 14.5748 21.9359 14.4257C21.5774 14.2766 21.1814 14.2425 20.8027 14.3281C20.5989 13.9976 20.2974 13.7386 19.94 13.5868C19.5826 13.435 19.1869 13.3979 18.8075 13.4807C18.4281 13.5635 18.0838 13.762 17.8221 14.0489C17.5604 14.3358 17.3943 14.6968 17.3466 15.0822C16.9171 14.9253 16.445 14.9308 16.0192 15.0977C15.5935 15.2647 15.2434 15.5815 15.0349 15.9885C14.8265 16.3956 14.774 16.8648 14.8874 17.3078C15.0008 17.7508 15.2722 18.1371 15.6506 18.394C15.3151 18.7048 15.1047 19.1275 15.0592 19.5826C15.0137 20.0377 15.1361 20.4937 15.4034 20.8648C15.6707 21.2359 16.0644 21.4964 16.5105 21.5974C16.9566 21.6984 17.4241 21.6329 17.8252 21.4131C17.9489 21.8534 18.2293 22.2334 18.6136 22.4813C18.9979 22.7293 19.4596 22.8283 19.9117 22.7595C20.3639 22.6908 20.7753 22.4591 21.0686 22.108C21.3618 21.757 21.5166 21.3109 21.5037 20.8537C21.952 20.9443 22.4179 20.8679 22.8138 20.6388C23.2096 20.4098 23.5081 20.044 23.653 19.6102C23.7979 19.1764 23.7792 18.7046 23.6005 18.2837C23.4217 17.8627 23.0953 17.5216 22.6826 17.3246L22.6825 17.3245Z" fill="url(#paint7_linear)"/>
<path d="M19.207 20C20.2426 20 21.082 19.1605 21.082 18.125C21.082 17.0895 20.2426 16.25 19.207 16.25C18.1715 16.25 17.332 17.0895 17.332 18.125C17.332 19.1605 18.1715 20 19.207 20Z" fill="url(#paint8_linear)"/>
<path d="M20 27.5C20 27.5 19.0625 29.375 19.0625 34.0625H20.9375C20.9375 29.375 20 27.5 20 27.5Z" fill="url(#paint9_linear)"/>
<path d="M22.8125 28.4375L25.625 32.1875H23.75L22.8125 34.0625L20.9375 28.4375H22.8125Z" fill="url(#paint10_linear)"/>
<path d="M17.1875 28.4375L14.375 32.1875H16.25L17.1875 34.0625L19.0625 28.4375H17.1875Z" fill="url(#paint11_linear)"/>
<path d="M20.9375 26.082L25.7074 24.7192C25.9167 24.6594 26.1371 24.649 26.3511 24.6888C26.5651 24.7287 26.7669 24.8176 26.9407 24.9487C27.1144 25.0798 27.2554 25.2494 27.3524 25.4443C27.4495 25.6391 27.5 25.8538 27.5 26.0715V27.9679C27.5 28.1855 27.4495 28.4002 27.3524 28.595C27.2553 28.7899 27.1144 28.9595 26.9406 29.0906C26.7668 29.2216 26.565 29.3106 26.351 29.3504C26.137 29.3902 25.9167 29.3798 25.7074 29.32L20.9375 27.957V26.082Z" fill="url(#paint12_linear)"/>
<path d="M19.0625 26.082L14.2926 24.7192C14.0833 24.6594 13.8629 24.649 13.6489 24.6888C13.4349 24.7287 13.2331 24.8176 13.0594 24.9487C12.8856 25.0798 12.7446 25.2494 12.6476 25.4443C12.5505 25.6391 12.5 25.8538 12.5 26.0715V27.9679C12.5 28.1855 12.5505 28.4002 12.6476 28.595C12.7447 28.7899 12.8856 28.9595 13.0594 29.0906C13.2332 29.2216 13.435 29.3106 13.649 29.3504C13.863 29.3902 14.0833 29.3798 14.2926 29.32L19.0625 27.957V26.082Z" fill="url(#paint13_linear)"/>
<path d="M21.4062 25.1447H18.5938C18.3349 25.1447 18.125 25.3546 18.125 25.6135V28.426C18.125 28.6848 18.3349 28.8947 18.5938 28.8947H21.4062C21.6651 28.8947 21.875 28.6848 21.875 28.426V25.6135C21.875 25.3546 21.6651 25.1447 21.4062 25.1447Z" fill="url(#paint14_linear)"/>
<path d="M31.1113 14.2981C31.2956 13.8342 31.3414 13.3268 31.2432 12.8374C31.145 12.348 30.9069 11.8976 30.5579 11.5407C30.3072 11.2822 30.0047 11.0797 29.6701 10.9464C29.3356 10.8131 28.9767 10.752 28.6169 10.7673C28.1673 10.2715 27.5424 9.97019 26.8745 9.92699C26.2066 9.8838 25.548 10.1021 25.0383 10.5358C24.8934 10.1961 24.6774 9.89141 24.4047 9.64237C24.5634 9.24338 24.62 8.81107 24.5693 8.38466C24.5187 7.95825 24.3623 7.55124 24.1145 7.20055C23.8667 6.84987 23.5353 6.5666 23.1503 6.37646C22.7653 6.18631 22.3389 6.0953 21.9098 6.11169C21.6212 5.79374 21.2579 5.55287 20.8526 5.41094C20.4474 5.26902 20.0131 5.23052 19.5893 5.29895C19.1654 5.36739 18.7653 5.54058 18.4254 5.80282C18.0854 6.06505 17.8163 6.40803 17.6424 6.80063C17.0097 6.76529 16.3861 6.96392 15.8904 7.35868C15.3947 7.75343 15.0615 8.31674 14.9543 8.9413C14.8219 8.92563 14.6885 8.9202 14.5553 8.92507C14.2667 8.6069 13.9033 8.36582 13.498 8.22373C13.0927 8.08162 12.6583 8.043 12.2343 8.11135C11.8103 8.17971 11.41 8.35288 11.0699 8.61515C10.7297 8.87742 10.4605 9.22048 10.2866 9.61319C9.78802 9.58499 9.29201 9.70219 8.85879 9.95054C8.42557 10.1989 8.0738 10.5677 7.84621 11.0122C7.61862 11.4567 7.52501 11.9577 7.57674 12.4543C7.62848 12.951 7.82334 13.4219 8.13766 13.81C7.92449 14.1734 7.80374 14.5837 7.78599 15.0047C7.76825 15.4257 7.85405 15.8446 8.03588 16.2247C8.2177 16.6049 8.49 16.9346 8.8289 17.185C9.16781 17.4354 9.56296 17.5988 9.97973 17.661C10.1484 18.736 10.7769 21.7322 12.7905 24.2821C12.4864 24.4712 12.2355 24.7348 12.0616 25.0479C11.8877 25.361 11.7966 25.7133 11.7969 26.0715V27.9682C11.7973 28.5266 12.0188 29.0621 12.413 29.4576C12.8072 29.853 13.342 30.0763 13.9004 30.0786C14.0984 30.0784 14.2954 30.0506 14.4858 29.996L15.3184 29.7581L13.8125 31.7656C13.7342 31.8701 13.6865 31.9943 13.6747 32.1243C13.663 32.2544 13.6877 32.3851 13.7461 32.5019C13.8045 32.6187 13.8943 32.717 14.0054 32.7856C14.1164 32.8543 14.2444 32.8906 14.375 32.8906H15.8155L16.5586 34.377C16.617 34.4937 16.7068 34.592 16.8179 34.6606C16.9289 34.7293 17.0569 34.7656 17.1875 34.7656C17.2041 34.7656 17.2207 34.765 17.2376 34.7639C17.3763 34.754 17.5089 34.7032 17.6188 34.618C17.7286 34.5327 17.8108 34.4168 17.8547 34.2849L18.3879 32.6852C18.3698 33.1149 18.3604 33.5739 18.3596 34.0622C18.3596 34.2487 18.4337 34.4275 18.5656 34.5594C18.6974 34.6912 18.8763 34.7653 19.0628 34.7653H20.9378C21.1242 34.7653 21.3031 34.6912 21.4349 34.5594C21.5668 34.4275 21.6409 34.2487 21.6409 34.0622C21.6409 33.5735 21.6314 33.1145 21.6126 32.6852L22.1458 34.2849C22.1898 34.4168 22.2719 34.5327 22.3817 34.618C22.4916 34.7032 22.6242 34.754 22.7629 34.7639C22.7798 34.765 22.7964 34.7656 22.813 34.7656C22.9435 34.7656 23.0715 34.7292 23.1825 34.6606C23.2936 34.5919 23.3833 34.4937 23.4417 34.377L24.1845 32.8906H25.625C25.7556 32.8906 25.8836 32.8543 25.9947 32.7856C26.1058 32.717 26.1955 32.6187 26.2539 32.5019C26.3123 32.3851 26.337 32.2544 26.3253 32.1243C26.3136 31.9943 26.2659 31.8701 26.1875 31.7656L24.6817 29.7581L25.5143 29.996C25.7046 30.0506 25.9016 30.0784 26.0996 30.0786C26.658 30.0763 27.1928 29.853 27.587 29.4576C27.9812 29.0621 28.2027 28.5266 28.2031 27.9682V26.0715C28.2035 25.7132 28.1124 25.3609 27.9385 25.0477C27.7646 24.7345 27.5136 24.4709 27.2093 24.2818C28.7204 22.3671 29.4542 20.193 29.8005 18.7464C30.2775 18.6665 30.7225 18.454 31.0845 18.1333C31.4465 17.8125 31.711 17.3963 31.8477 16.9324C31.9845 16.4684 31.9879 15.9753 31.8577 15.5095C31.7274 15.0437 31.4688 14.6239 31.1113 14.2981ZM16.4535 8.84075C16.5838 8.58649 16.8025 8.38858 17.0684 8.28422C17.3344 8.17986 17.6293 8.17624 17.8978 8.27403C17.9972 8.31047 18.1036 8.32397 18.209 8.31352C18.3144 8.30308 18.4161 8.26896 18.5065 8.21372C18.5968 8.15847 18.6735 8.08353 18.7309 7.99448C18.7882 7.90543 18.8247 7.80458 18.8376 7.69946C18.8674 7.45863 18.9714 7.23302 19.135 7.05381C19.2986 6.87461 19.5139 6.75064 19.751 6.69906C19.9882 6.64748 20.2355 6.67082 20.4588 6.76586C20.682 6.86089 20.8703 7.02294 20.9975 7.2296C21.0745 7.35408 21.1884 7.45143 21.3234 7.50809C21.4583 7.56474 21.6076 7.57787 21.7503 7.54565C21.9869 7.49218 22.2343 7.51345 22.4583 7.60652C22.6823 7.6996 22.8719 7.8599 23.001 8.06531C23.13 8.27071 23.1921 8.5111 23.1788 8.7533C23.1654 8.99551 23.0772 9.2276 22.9263 9.41755C22.8602 9.50032 22.8137 9.59695 22.7902 9.70022C22.7667 9.80349 22.7668 9.91073 22.7906 10.0139C22.8144 10.1172 22.8611 10.2137 22.9274 10.2963C22.9937 10.3789 23.0778 10.4454 23.1734 10.491C23.3623 10.5814 23.5235 10.7208 23.6403 10.8946C23.757 11.0685 23.825 11.2705 23.8371 11.4796C23.2939 11.5571 22.7896 11.8062 22.3978 12.1903C22.006 12.5745 21.7471 13.0737 21.6589 13.6153C21.48 13.5844 21.2984 13.5727 21.117 13.5802C20.9716 13.4192 20.8064 13.2773 20.6253 13.1579C21.2003 13.0148 21.7085 12.6781 22.0645 12.2045C22.4205 11.7308 22.6026 11.1491 22.5803 10.5569C22.5579 9.96484 22.3325 9.39847 21.9418 8.953C21.5511 8.50753 21.019 8.2101 20.4349 8.1107C19.8507 8.01129 19.2502 8.11597 18.7341 8.40713C18.2181 8.6983 17.818 9.15822 17.601 9.7096C17.3841 10.261 17.3636 10.8702 17.5429 11.435C17.7221 11.9997 18.0904 12.4856 18.5856 12.8108C18.2445 12.8956 17.9244 13.0494 17.645 13.2626C17.5016 12.9568 17.2992 12.6823 17.0494 12.4549C17.2583 11.9301 17.2887 11.3511 17.1359 10.8073C17.1246 10.7418 17.104 10.6783 17.0748 10.6185C16.9502 10.2731 16.7523 9.95873 16.4947 9.69704C16.4449 9.64618 16.3927 9.59802 16.3393 9.55173C16.301 9.30862 16.341 9.05965 16.4535 8.84075ZM25.5768 24.0265C25.5559 24.0318 25.535 24.0372 25.5145 24.0431L22.3658 24.9427C22.258 24.7881 22.1145 24.6618 21.9475 24.5745C21.7804 24.4872 21.5948 24.4415 21.4063 24.4414H18.5938C18.4053 24.4415 18.2197 24.4871 18.0526 24.5744C17.8855 24.6616 17.742 24.7879 17.6342 24.9425L14.4878 24.0435C14.4665 24.0376 14.4451 24.0318 14.4237 24.0264C12.6697 22.1455 11.8824 19.752 11.5491 18.3322C11.9915 18.6552 12.5253 18.8288 13.073 18.8276C13.6208 18.8264 14.1539 18.6505 14.5948 18.3256C14.6283 18.3733 14.6632 18.42 14.7003 18.4655C14.4478 18.8964 14.3259 19.3914 14.3494 19.8902C14.3729 20.3891 14.5408 20.8704 14.8327 21.2757C15.1245 21.6809 15.5278 21.9927 15.9935 22.173C16.4592 22.3534 16.9673 22.3946 17.456 22.2917C17.7245 22.7128 18.1094 23.0469 18.5642 23.2534C19.0189 23.4598 19.5239 23.5298 20.0176 23.4547C20.5114 23.3796 20.9727 23.1627 21.3455 22.8304C21.7183 22.4981 21.9865 22.0646 22.1177 21.5827C22.6673 21.531 23.1857 21.304 23.5966 20.9353C24.0075 20.5667 24.2891 20.0757 24.3999 19.5349C24.5868 19.5369 24.7734 19.5183 24.9562 19.4797C25.2246 19.9008 25.6096 20.2348 26.0643 20.4411C26.5191 20.6475 27.024 20.7172 27.5176 20.6418C27.5891 20.6309 27.6593 20.6169 27.7285 20.6003C27.2609 21.7296 26.5754 22.9565 25.5768 24.0265ZM18.8281 28.1914V25.8476H21.1719V28.1914H21.0832C21.0797 28.1914 21.0762 28.1914 21.0728 28.1914H18.9273C18.9239 28.1914 18.9205 28.1914 18.9172 28.1914H18.8281ZM17.1046 15.7422C17.2041 15.7787 17.3105 15.7922 17.4159 15.7817C17.5213 15.7713 17.6229 15.7372 17.7133 15.6819C17.8037 15.6267 17.8804 15.5517 17.9377 15.4627C17.9951 15.3736 18.0316 15.2728 18.0445 15.1676C18.0745 14.9269 18.1786 14.7015 18.3423 14.5224C18.5059 14.3433 18.7211 14.2195 18.9582 14.1679C19.1952 14.1164 19.4424 14.1396 19.6657 14.2345C19.8889 14.3294 20.0773 14.4913 20.2046 14.6977C20.2815 14.8222 20.3954 14.9196 20.5302 14.9763C20.6651 15.033 20.8143 15.0462 20.957 15.0141C21.1222 14.9763 21.2936 14.975 21.4593 15.0102C21.625 15.0454 21.781 15.1163 21.9165 15.218C22.0268 15.4318 22.1669 15.629 22.3325 15.8036C22.3906 15.9865 22.4028 16.181 22.368 16.3698C22.3332 16.5586 22.2524 16.7359 22.1328 16.8861C22.0667 16.9689 22.0202 17.0655 21.9967 17.1688C21.9732 17.2721 21.9734 17.3793 21.9971 17.4825C22.0209 17.5858 22.0677 17.6823 22.134 17.7649C22.2003 17.8475 22.2844 17.914 22.38 17.9596C22.6378 18.0828 22.8417 18.2959 22.9533 18.5589C23.0649 18.8219 23.0766 19.1166 22.9861 19.3876C22.8955 19.6586 22.7091 19.8872 22.4618 20.0303C22.2146 20.1735 21.9235 20.2213 21.6435 20.1648C21.5397 20.1437 21.4324 20.1464 21.3298 20.1725C21.2272 20.1987 21.1318 20.2477 21.0507 20.3159C20.9697 20.3841 20.9051 20.4697 20.8618 20.5664C20.8185 20.6631 20.7976 20.7683 20.8006 20.8741C20.8085 21.1597 20.7117 21.4384 20.5285 21.6576C20.3453 21.8768 20.0882 22.0215 19.8058 22.0644C19.5233 22.1074 19.2349 22.0456 18.9948 21.8908C18.7547 21.7359 18.5795 21.4987 18.5021 21.2237C18.4735 21.1217 18.4223 21.0274 18.3522 20.948C18.2821 20.8686 18.195 20.806 18.0973 20.765C17.9997 20.7239 17.894 20.7055 17.7882 20.711C17.6825 20.7166 17.5793 20.7459 17.4865 20.7969C17.2358 20.9342 16.9437 20.9751 16.6649 20.912C16.3862 20.8488 16.1402 20.686 15.9732 20.4541C15.8062 20.2222 15.7298 19.9373 15.7582 19.6529C15.7866 19.3686 15.918 19.1044 16.1277 18.9102C16.2055 18.8383 16.266 18.7498 16.3047 18.6512C16.3435 18.5526 16.3595 18.4465 16.3515 18.3409C16.3435 18.2353 16.3118 18.1328 16.2586 18.0412C16.2055 17.9496 16.1323 17.8711 16.0446 17.8117C15.9051 17.717 15.7878 17.5931 15.7007 17.4486C15.6137 17.3042 15.5589 17.1426 15.5403 16.9749C15.5419 16.9699 15.543 16.9647 15.5445 16.9596C15.6021 16.7603 15.6352 16.5547 15.6428 16.3474C15.6487 16.3346 15.6539 16.3215 15.6604 16.3089C15.7907 16.0546 16.0093 15.8567 16.2753 15.7523C16.5413 15.648 16.8362 15.6444 17.1046 15.7422ZM18.8281 10.6567C18.8281 10.4249 18.8969 10.1983 19.0256 10.0056C19.1544 9.81292 19.3374 9.66271 19.5516 9.57402C19.7657 9.48532 20.0013 9.46211 20.2286 9.50733C20.456 9.55255 20.6648 9.66416 20.8287 9.82805C20.9926 9.99194 21.1042 10.2007 21.1494 10.4281C21.1946 10.6554 21.1714 10.891 21.0827 11.1051C20.994 11.3193 20.8438 11.5023 20.6511 11.6311C20.4584 11.7598 20.2318 11.8286 20 11.8286C19.6893 11.8282 19.3915 11.7046 19.1718 11.4849C18.9521 11.2652 18.8285 10.9674 18.8281 10.6567ZM9.41137 15.7981C9.2445 15.5662 9.16807 15.2813 9.19644 14.997C9.22482 14.7127 9.35605 14.4486 9.56547 14.2542C9.64322 14.1823 9.70373 14.0938 9.74247 13.9952C9.78121 13.8967 9.79719 13.7906 9.7892 13.685C9.78122 13.5794 9.74949 13.477 9.69637 13.3853C9.64325 13.2937 9.57012 13.2153 9.48244 13.1559C9.24621 12.9953 9.07679 12.754 9.00604 12.4773C8.93529 12.2005 8.96809 11.9075 9.09827 11.6533C9.22844 11.399 9.44703 11.2011 9.71291 11.0968C9.97879 10.9924 10.2736 10.9888 10.542 11.0866C10.6414 11.123 10.7478 11.1365 10.8532 11.1261C10.9586 11.1156 11.0603 11.0815 11.1507 11.0263C11.241 10.971 11.3177 10.8961 11.3751 10.807C11.4324 10.7179 11.4689 10.6171 11.4818 10.512C11.5118 10.2711 11.6158 10.0456 11.7795 9.86644C11.9432 9.68728 12.1585 9.56337 12.3956 9.51179C12.6328 9.46022 12.88 9.48354 13.1034 9.57853C13.3267 9.67352 13.515 9.8355 13.6423 10.0421C13.7193 10.1666 13.8333 10.264 13.9683 10.3207C14.1034 10.3773 14.2527 10.3904 14.3955 10.358C14.5906 10.3139 14.7937 10.3204 14.9855 10.377C15.1773 10.4336 15.3514 10.5384 15.4912 10.6814C15.6177 10.8096 15.7124 10.9656 15.7676 11.137C15.7688 11.1407 15.77 11.1444 15.7713 11.1481C15.8294 11.331 15.8415 11.5254 15.8066 11.714C15.7716 11.9027 15.6907 12.0799 15.571 12.2298C15.5048 12.3126 15.4583 12.4093 15.4347 12.5126C15.4112 12.6159 15.4113 12.7232 15.4351 12.8265C15.4589 12.9298 15.5057 13.0263 15.5721 13.109C15.6384 13.1916 15.7226 13.2581 15.8183 13.3037C15.9923 13.3865 16.1431 13.5111 16.2573 13.6664C16.3715 13.8217 16.4454 14.0028 16.4726 14.1936C16.4765 14.2207 16.4792 14.2477 16.4812 14.2746C15.9981 14.3164 15.5366 14.4936 15.1497 14.7859C14.7628 15.0781 14.4663 15.4736 14.294 15.9269C14.2936 15.928 14.2932 15.9292 14.2927 15.9303C14.2912 15.9343 14.2898 15.9383 14.2883 15.942C14.2813 15.9596 14.2745 15.9779 14.2689 15.9963C14.185 16.2376 14.1376 16.4901 14.1283 16.7455C14.0353 16.9448 13.888 17.1139 13.7034 17.2334C13.5187 17.3528 13.3041 17.4179 13.0842 17.4211C12.8643 17.4242 12.6479 17.3654 12.4599 17.2513C12.2719 17.1371 12.1198 16.9724 12.0211 16.7758L12.0176 16.7693C11.9855 16.7045 11.9596 16.6368 11.9402 16.5672C11.9116 16.4652 11.8603 16.371 11.7903 16.2917C11.7202 16.2123 11.6331 16.1497 11.5354 16.1087C11.4378 16.0677 11.3321 16.0493 11.2264 16.0548C11.1206 16.0603 11.0175 16.0897 10.9247 16.1407C10.674 16.2779 10.3819 16.3188 10.1032 16.2557C9.82451 16.1926 9.57847 16.0298 9.41137 15.7981ZM14.0992 28.6439C13.9946 28.6737 13.8845 28.6789 13.7776 28.659C13.6706 28.6391 13.5698 28.5946 13.4829 28.5291C13.3961 28.4636 13.3256 28.3789 13.2771 28.2815C13.2285 28.1842 13.2032 28.0769 13.2031 27.9682V26.0715C13.2025 25.9722 13.2232 25.874 13.2638 25.7834C13.3045 25.6928 13.3641 25.6121 13.4386 25.5465C13.5124 25.4805 13.5993 25.4308 13.6937 25.4008C13.7881 25.3707 13.8877 25.361 13.9861 25.3723C14.0244 25.3768 14.0622 25.3844 14.0992 25.3952L17.4219 26.3446V27.6945L14.0992 28.6439ZM17.0573 32.2298L16.8789 31.873C16.8205 31.7562 16.7307 31.658 16.6197 31.5894C16.5086 31.5207 16.3806 31.4844 16.25 31.4844H15.7813L17.5391 29.1406H17.6672C17.7563 29.2559 17.8661 29.3537 17.9909 29.429L17.0573 32.2298ZM19.7731 33.3594C19.7897 32.3664 19.8655 31.3754 20 30.3915C20.1345 31.3754 20.2103 32.3664 20.227 33.3594H19.7731ZM23.75 31.4844C23.6194 31.4844 23.4914 31.5207 23.3804 31.5894C23.2693 31.658 23.1795 31.7562 23.1211 31.873L22.9428 32.2298L22.0091 29.429C22.1339 29.3537 22.2437 29.2559 22.3329 29.1406H22.461L24.2188 31.4844H23.75ZM26.7969 27.9682C26.7968 28.0769 26.7715 28.1842 26.723 28.2815C26.6744 28.3789 26.604 28.4636 26.5171 28.5291C26.4303 28.5946 26.3294 28.6391 26.2225 28.659C26.1155 28.6789 26.0054 28.6737 25.9008 28.6439L22.5781 27.6945V26.3446L25.9029 25.3946C25.9395 25.384 25.9768 25.3766 26.0146 25.3722C26.113 25.3612 26.2126 25.3711 26.3069 25.4013C26.4013 25.4314 26.4882 25.4811 26.562 25.5471C26.6358 25.613 26.6949 25.6939 26.7354 25.7842C26.7758 25.8746 26.7968 25.9725 26.7969 26.0715V27.9682ZM30.4857 16.5754C30.3951 16.8462 30.2087 17.0746 29.9615 17.2177C29.7143 17.3607 29.4234 17.4086 29.1434 17.3521C29.0396 17.3311 28.9324 17.3337 28.8298 17.3599C28.7271 17.3861 28.6318 17.4351 28.5507 17.5033C28.4697 17.5715 28.4051 17.6571 28.3618 17.7538C28.3186 17.8504 28.2977 17.9556 28.3007 18.0615C28.3085 18.347 28.2117 18.6256 28.0284 18.8448C27.8452 19.064 27.5882 19.2086 27.3058 19.2516C27.0233 19.2945 26.735 19.2328 26.4949 19.078C26.2548 18.9232 26.0795 18.686 26.0021 18.411C25.9735 18.3091 25.9223 18.2149 25.8522 18.1355C25.7822 18.0562 25.6952 17.9936 25.5976 17.9526C25.5 17.9116 25.3944 17.8931 25.2887 17.8986C25.183 17.904 25.0799 17.9333 24.9871 17.9842C24.7748 18.1009 24.5315 18.1485 24.291 18.1205C24.1481 17.7345 23.9151 17.3883 23.6113 17.1106C23.8558 16.4924 23.853 15.8037 23.6033 15.1875C23.5974 15.1699 23.5909 15.1529 23.5836 15.1359C23.5814 15.1308 23.5785 15.1261 23.5762 15.121C23.457 14.8494 23.2916 14.6005 23.0873 14.3854C23.0093 14.1445 23.0124 13.8845 23.0963 13.6456C23.1144 13.5944 23.1358 13.5444 23.1604 13.4961C23.2706 13.2821 23.4438 13.1072 23.6566 12.9948C23.8694 12.8824 24.1116 12.8381 24.3504 12.8678C24.4366 12.8784 24.5212 12.8989 24.6027 12.929C24.7022 12.9658 24.8087 12.9795 24.9143 12.9693C25.0198 12.959 25.1217 12.925 25.2123 12.8698C25.3029 12.8146 25.3798 12.7396 25.4372 12.6505C25.4947 12.5614 25.5313 12.4604 25.5442 12.3551C25.5742 12.1143 25.6783 11.8887 25.842 11.7096C26.0057 11.5304 26.2209 11.4065 26.4581 11.3549C26.6952 11.3033 26.9425 11.3267 27.1658 11.4217C27.3891 11.5167 27.5774 11.6786 27.7047 11.8852C27.7817 12.0097 27.8956 12.1071 28.0306 12.1637C28.1655 12.2204 28.3148 12.2335 28.4576 12.2013C28.6942 12.1478 28.9416 12.169 29.1656 12.2621C29.3897 12.3552 29.5793 12.5156 29.7082 12.7211C29.8372 12.9265 29.8993 13.167 29.8857 13.4092C29.8722 13.6514 29.7838 13.8835 29.6328 14.0733C29.5667 14.1561 29.5202 14.2528 29.4968 14.3561C29.4733 14.4593 29.4735 14.5666 29.4973 14.6698C29.521 14.773 29.5678 14.8695 29.6342 14.9521C29.7005 15.0347 29.7846 15.1012 29.8802 15.1467C30.138 15.27 30.3419 15.4833 30.4534 15.7464C30.5649 16.0095 30.5764 16.3044 30.4857 16.5754Z" fill="black"/>
<path d="M26.707 12.7344C26.1971 12.7344 25.6987 12.8856 25.2747 13.1689C24.8507 13.4522 24.5203 13.8548 24.3252 14.3259C24.13 14.797 24.079 15.3154 24.1784 15.8155C24.2779 16.3156 24.5235 16.775 24.884 17.1355C25.2446 17.4961 25.704 17.7416 26.2041 17.8411C26.7042 17.9406 27.2226 17.8895 27.6936 17.6944C28.1647 17.4992 28.5674 17.1688 28.8507 16.7448C29.134 16.3209 29.2852 15.8224 29.2852 15.3125C29.2844 14.629 29.0125 13.9737 28.5292 13.4903C28.0459 13.007 27.3906 12.7351 26.707 12.7344ZM26.707 16.4844C26.4753 16.4844 26.2487 16.4156 26.056 16.2869C25.8633 16.1581 25.7131 15.9751 25.6244 15.761C25.5357 15.5468 25.5125 15.3112 25.5577 15.0839C25.6029 14.8566 25.7145 14.6477 25.8784 14.4839C26.0423 14.32 26.2511 14.2084 26.4784 14.1631C26.7057 14.1179 26.9414 14.1411 27.1555 14.2298C27.3696 14.3185 27.5526 14.4687 27.6814 14.6614C27.8102 14.8542 27.8789 15.0807 27.8789 15.3125C27.8786 15.6232 27.755 15.9211 27.5353 16.1407C27.3156 16.3604 27.0177 16.484 26.707 16.4844Z" fill="black"/>
<path d="M12.6445 16.0473C13.1544 16.0473 13.6529 15.8961 14.0769 15.6128C14.5008 15.3295 14.8313 14.9269 15.0264 14.4558C15.2215 13.9847 15.2726 13.4663 15.1731 12.9662C15.0736 12.4661 14.8281 12.0067 14.4675 11.6462C14.107 11.2856 13.6476 11.0401 13.1475 10.9406C12.6474 10.8411 12.129 10.8922 11.6579 11.0873C11.1868 11.2824 10.7842 11.6129 10.5009 12.0368C10.2176 12.4608 10.0664 12.9593 10.0664 13.4692C10.0672 14.1527 10.339 14.808 10.8224 15.2913C11.3057 15.7747 11.961 16.0465 12.6445 16.0473ZM12.6445 12.2973C12.8763 12.2973 13.1029 12.366 13.2956 12.4948C13.4883 12.6236 13.6385 12.8066 13.7272 13.0207C13.8159 13.2349 13.8391 13.4705 13.7939 13.6978C13.7487 13.9251 13.6371 14.1339 13.4732 14.2978C13.3093 14.4617 13.1005 14.5733 12.8731 14.6185C12.6458 14.6637 12.4102 14.6405 12.1961 14.5518C11.9819 14.4631 11.7989 14.3129 11.6702 14.1202C11.5414 13.9275 11.4727 13.7009 11.4727 13.4692C11.473 13.1585 11.5966 12.8606 11.8163 12.6409C12.036 12.4212 12.3338 12.2977 12.6445 12.2973Z" fill="black"/>
<path d="M19.207 20.7031C19.7169 20.7031 20.2154 20.5519 20.6394 20.2686C21.0633 19.9854 21.3938 19.5827 21.5889 19.1116C21.784 18.6405 21.8351 18.1221 21.7356 17.622C21.6361 17.1219 21.3906 16.6626 21.03 16.302C20.6695 15.9414 20.2101 15.6959 19.71 15.5964C19.2099 15.4969 18.6915 15.548 18.2204 15.7431C17.7493 15.9383 17.3467 16.2687 17.0634 16.6927C16.7801 17.1166 16.6289 17.6151 16.6289 18.125C16.6297 18.8085 16.9015 19.4639 17.3849 19.9472C17.8682 20.4305 18.5235 20.7024 19.207 20.7031ZM19.207 16.9531C19.4388 16.9531 19.6654 17.0219 19.8581 17.1506C20.0508 17.2794 20.201 17.4624 20.2897 17.6765C20.3784 17.8907 20.4016 18.1263 20.3564 18.3536C20.3112 18.581 20.1996 18.7898 20.0357 18.9537C19.8718 19.1175 19.663 19.2292 19.4357 19.2744C19.2083 19.3196 18.9727 19.2964 18.7586 19.2077C18.5444 19.119 18.3614 18.9688 18.2327 18.7761C18.1039 18.5834 18.0352 18.3568 18.0352 18.125C18.0355 17.8143 18.1591 17.5165 18.3788 17.2968C18.5985 17.0771 18.8963 16.9535 19.207 16.9531Z" fill="black"/>
<defs>
<linearGradient id="paint0_linear" x1="14.3015" y1="24.908" x2="25.6985" y2="13.511" gradientUnits="userSpaceOnUse">
<stop stop-color="#E3DDDD"/>
<stop offset="1" stop-color="white"/>
</linearGradient>
<linearGradient id="paint1_linear" x1="15.6214" y1="10.6409" x2="24.5431" y2="10.6409" gradientUnits="userSpaceOnUse">
<stop stop-color="#F9DEA7"/>
<stop offset="1" stop-color="#FCF2DC"/>
</linearGradient>
<linearGradient id="paint2_linear" x1="18.125" y1="10.6567" x2="21.875" y2="10.6567" gradientUnits="userSpaceOnUse">
<stop stop-color="#F5C2C2"/>
<stop offset="1" stop-color="#FAE1E1"/>
</linearGradient>
<linearGradient id="paint3_linear" x1="2660.49" y1="1652.5" x2="4018.79" y2="1652.5" gradientUnits="userSpaceOnUse">
<stop stop-color="#F9DEA7"/>
<stop offset="1" stop-color="#FCF2DC"/>
</linearGradient>
<linearGradient id="paint4_linear" x1="1294.08" y1="673.438" x2="1534.08" y2="673.438" gradientUnits="userSpaceOnUse">
<stop stop-color="#F5C2C2"/>
<stop offset="1" stop-color="#FAE1E1"/>
</linearGradient>
<linearGradient id="paint5_linear" x1="505.488" y1="1356.68" x2="1863.84" y2="1356.68" gradientUnits="userSpaceOnUse">
<stop stop-color="#F9DEA7"/>
<stop offset="1" stop-color="#FCF2DC"/>
</linearGradient>
<linearGradient id="paint6_linear" x1="380.013" y1="553.623" x2="620.013" y2="553.623" gradientUnits="userSpaceOnUse">
<stop stop-color="#F5C2C2"/>
<stop offset="1" stop-color="#FAE1E1"/>
</linearGradient>
<linearGradient id="paint7_linear" x1="1511.15" y1="2103.78" x2="2869.45" y2="2103.78" gradientUnits="userSpaceOnUse">
<stop stop-color="#F9DEA7"/>
<stop offset="1" stop-color="#FCF2DC"/>
</linearGradient>
<linearGradient id="paint8_linear" x1="806.576" y1="856.25" x2="1046.58" y2="856.25" gradientUnits="userSpaceOnUse">
<stop stop-color="#F5C2C2"/>
<stop offset="1" stop-color="#FAE1E1"/>
</linearGradient>
<linearGradient id="paint9_linear" x1="18.125" y1="33.125" x2="21.875" y2="29.375" gradientUnits="userSpaceOnUse">
<stop stop-color="#D5CCCC"/>
<stop offset="1" stop-color="#F1EEEE"/>
</linearGradient>
<linearGradient id="paint10_linear" x1="21.1719" y1="32.4219" x2="23.9844" y2="29.6094" gradientUnits="userSpaceOnUse">
<stop stop-color="#9D95C8"/>
<stop offset="1" stop-color="#D5D2E7"/>
</linearGradient>
<linearGradient id="paint11_linear" x1="25.625" y1="2660.94" x2="-1503.16" y2="2472.2" gradientUnits="userSpaceOnUse">
<stop stop-color="#9D95C8"/>
<stop offset="1" stop-color="#D5D2E7"/>
</linearGradient>
<linearGradient id="paint12_linear" x1="1953.8" y1="1975.79" x2="2297.59" y2="1496.68" gradientUnits="userSpaceOnUse">
<stop stop-color="#9D95C8"/>
<stop offset="1" stop-color="#D5D2E7"/>
</linearGradient>
<linearGradient id="paint13_linear" x1="-2411.1" y1="1975.79" x2="-2067.31" y2="1496.68" gradientUnits="userSpaceOnUse">
<stop stop-color="#9D95C8"/>
<stop offset="1" stop-color="#D5D2E7"/>
</linearGradient>
<linearGradient id="paint14_linear" x1="866.911" y1="1545.62" x2="1089.34" y2="1323.19" gradientUnits="userSpaceOnUse">
<stop stop-color="#9D95C8"/>
<stop offset="1" stop-color="#D5D2E7"/>
</linearGradient>
</defs>
</svg>
